<?xml version="1.0"?>
<svg xmlns="http://www.w3.org/2000/svg" viewBox="0 0 512 512" width="512px" height="512px" class=""><g><g id="Solid"><path d="M312,200c-1.006,0-2-.052-2.984-.144l-18.894,37.789A31.986,31.986,0,0,1,304,264h48a31.955,31.955,0,0,1,12.386-25.257l-36.729-42.851A31.789,31.789,0,0,1,312,200Z" data-original="#000000" class="active-path" data-old_color="#000000" fill="#FFFFFF"/><path d="M281.013,176H238.987a31.952,31.952,0,0,1-7.106,13.27l31.392,43.949A31.911,31.911,0,0,1,272,232c1.006,0,2,.052,2.984.144l18.894-37.789A32.1,32.1,0,0,1,281.013,176Z" data-original="#000000" class="active-path" data-old_color="#000000" fill="#FFFFFF"/><circle cx="312" cy="168" r="16" data-original="#000000" class="active-path" data-old_color="#000000" fill="#FFFFFF"/><circle cx="384" cy="264" r="16" data-original="#000000" class="active-path" data-old_color="#000000" fill="#FFFFFF"/><path d="M352,112a32.044,32.044,0,0,1-5.916-.557L332.4,143.368a32.033,32.033,0,0,1,10.928,18.114l90.179,20.81a31.818,31.818,0,0,1,2.934-6.533l-68.2-68.2A31.8,31.8,0,0,1,352,112Z" data-original="#000000" class="active-path" data-old_color="#000000" fill="#FFFFFF"/><path d="M433.013,344a31.826,31.826,0,0,1,3.431-8.242l-41.64-41.64a31.915,31.915,0,0,1-24.053-1L294.9,343.68c.029.107.063.212.091.32Z" data-original="#000000" class="active-path" data-old_color="#000000" fill="#FFFFFF"/><path d="M432.669,198.518l-90.179-20.81a31.838,31.838,0,0,1-3.269,7.09l40.69,47.472a31.752,31.752,0,0,1,20.984,4.571l35.15-29.292A31.785,31.785,0,0,1,432.669,198.518Z" data-original="#000000" class="active-path" data-old_color="#000000" fill="#FFFFFF"/><circle cx="352" cy="80" r="16" data-original="#000000" class="active-path" data-old_color="#000000" fill="#FFFFFF"/><path d="M158.7,232.711l23.151-46.3a31.853,31.853,0,0,1-4.563-9.444L79.927,189.948c.043.679.073,1.362.073,2.052a31.887,31.887,0,0,1-1.305,9.026l52.08,39.055a31.917,31.917,0,0,1,27.925-7.37Z" data-original="#000000" class="active-path" data-old_color="#000000" fill="#FFFFFF"/><path d="M456,222.987a31.8,31.8,0,0,1-8.895-3.828l-35.15,29.292a31.905,31.905,0,0,1-3.748,36.442l39.551,39.551A31.826,31.826,0,0,1,456,321.013Z" data-original="#000000" class="active-path" data-old_color="#000000" fill="#FFFFFF"/><circle cx="464" cy="192" r="16" data-original="#000000" class="active-path" data-old_color="#000000" fill="#FFFFFF"/><circle cx="272" cy="264" r="16" data-original="#000000" class="active-path" data-old_color="#000000" fill="#FFFFFF"/><circle cx="152" cy="264" r="16" data-original="#000000" class="active-path" data-old_color="#000000" fill="#FFFFFF"/><path d="M264,320V294.987A32.124,32.124,0,0,1,244.305,280H189.95l61.079,42.758A31.788,31.788,0,0,1,264,320Z" data-original="#000000" class="active-path" data-old_color="#000000" fill="#FFFFFF"/><path d="M184,264h56a31.9,31.9,0,0,1,9.419-22.651l-30.828-43.158a31.911,31.911,0,0,1-24.138-1.209L173,239.886A31.929,31.929,0,0,1,184,264Z" data-original="#000000" class="active-path" data-old_color="#000000" fill="#FFFFFF"/><circle cx="208" cy="168" r="16" data-original="#000000" class="active-path" data-old_color="#000000" fill="#FFFFFF"/><circle cx="112" cy="352" r="16" data-original="#000000" class="active-path" data-old_color="#000000" fill="#FFFFFF"/><circle cx="320" cy="432" r="16" data-original="#000000" class="active-path" data-old_color="#000000" fill="#FFFFFF"/><path d="M433.013,360H294.987a31.928,31.928,0,0,1-6.677,12.774l20.475,29.259a31.916,31.916,0,0,1,29.982,4.072l95.993-41.129A31.7,31.7,0,0,1,433.013,360Z" data-original="#000000" class="active-path" data-old_color="#000000" fill="#FFFFFF"/><path d="M356.305,280H299.7A32.124,32.124,0,0,1,280,294.987v29.318a32.2,32.2,0,0,1,6.96,5.438l70.928-47.28Q357.042,281.27,356.305,280Z" data-original="#000000" class="active-path" data-old_color="#000000" fill="#FFFFFF"/><path d="M409.013,424A32.056,32.056,0,0,1,440,400c.416,0,.828.016,1.24.031l6.195-20.661c-.757-.46-1.488-.956-2.2-1.474l-95.99,41.133A31.729,31.729,0,0,1,350.987,424Z" data-original="#000000" class="active-path" data-old_color="#000000" fill="#FFFFFF"/><circle cx="264" cy="352" r="16" data-original="#000000" class="active-path" data-old_color="#000000" fill="#FFFFFF"/><circle cx="464" cy="352" r="16" data-original="#000000" class="active-path" data-old_color="#000000" fill="#FFFFFF"/><path d="M178.557,106.045l19.023,31.706A31.982,31.982,0,0,1,238.987,160h42.026a31.968,31.968,0,0,1,36.9-23.443L331.6,104.631A32.059,32.059,0,0,1,321.013,88H190.987A32.089,32.089,0,0,1,178.557,106.045Z" data-original="#000000" class="active-path" data-old_color="#000000" fill="#FFFFFF"/><circle cx="440" cy="432" r="16" data-original="#000000" class="active-path" data-old_color="#000000" fill="#FFFFFF"/><path d="M233.013,344a31.88,31.88,0,0,1,5.087-10.761l-64.813-45.373A31.869,31.869,0,0,1,152,296c-.856,0-1.7-.044-2.54-.11l-13.825,34.561A31.963,31.963,0,0,1,142.987,344Z" data-original="#000000" class="active-path" data-old_color="#000000" fill="#FFFFFF"/><circle cx="160" cy="80" r="16" data-original="#000000" class="active-path" data-old_color="#000000" fill="#FFFFFF"/><circle cx="48" cy="192" r="16" data-original="#000000" class="active-path" data-old_color="#000000" fill="#FFFFFF"/><path d="M176.806,160.888a31.95,31.95,0,0,1,7.425-14.287l-20.867-34.779A32.236,32.236,0,0,1,160,112a31.8,31.8,0,0,1-16.242-4.444L77.135,174.179Z" data-original="#000000" class="active-path" data-old_color="#000000" fill="#FFFFFF"/><circle cx="48" cy="296" r="16" data-original="#000000" class="active-path" data-old_color="#000000" fill="#FFFFFF"/><path d="M124.919,281.016,79.779,292.3a31.756,31.756,0,0,1-4.223,19.942l15.551,15.552a31.9,31.9,0,0,1,30.841-6.2l12.374-30.935A32.24,32.24,0,0,1,124.919,281.016Z" data-original="#000000" class="active-path" data-old_color="#000000" fill="#FFFFFF"/><path d="M70.411,214.813A31.985,31.985,0,0,1,56,222.987v42.026a32.085,32.085,0,0,1,17.923,12.258l46.126-11.529c-.031-.577-.049-1.158-.049-1.742a31.853,31.853,0,0,1,1.823-10.632Z" data-original="#000000" class="active-path" data-old_color="#000000" fill="#FFFFFF"/></g></g> </svg>
