<?xml version="1.0" encoding="UTF-8" standalone="no"?>
<!-- Created with Inkscape (http://www.inkscape.org/) -->

<svg
   xmlns:dc="http://purl.org/dc/elements/1.1/"
   xmlns:cc="http://creativecommons.org/ns#"
   xmlns:rdf="http://www.w3.org/1999/02/22-rdf-syntax-ns#"
   xmlns:svg="http://www.w3.org/2000/svg"
   xmlns="http://www.w3.org/2000/svg"
   xmlns:sodipodi="http://sodipodi.sourceforge.net/DTD/sodipodi-0.dtd"
   xmlns:inkscape="http://www.inkscape.org/namespaces/inkscape"
   width="512"
   height="512"
   viewBox="0 0 135.46666 135.46667"
   version="1.1"
   id="svg8"
   inkscape:version="0.92.3 (2405546, 2018-03-11)"
   sodipodi:docname="bannermlh.svg">
  <defs
     id="defs2">
    <style
       id="style815">.cls-1{fill:#f8b92a;}.cls-2{fill:#ba8b20;}.cls-3,.cls-4{fill:#fff;}.cls-4{fill-rule:evenodd;}</style>
  </defs>
  <sodipodi:namedview
     id="base"
     pagecolor="#ffffff"
     bordercolor="#666666"
     borderopacity="1.0"
     inkscape:pageopacity="0.0"
     inkscape:pageshadow="2"
     inkscape:zoom="0.98994949"
     inkscape:cx="261.01139"
     inkscape:cy="258.1275"
     inkscape:document-units="px"
     inkscape:current-layer="layer1"
     showgrid="false"
     units="px"
     inkscape:window-width="1366"
     inkscape:window-height="704"
     inkscape:window-x="0"
     inkscape:window-y="27"
     inkscape:window-maximized="1" />
  <metadata
     id="metadata5">
    <rdf:RDF>
      <cc:Work
         rdf:about="">
        <dc:format>image/svg+xml</dc:format>
        <dc:type
           rdf:resource="http://purl.org/dc/dcmitype/StillImage" />
        <dc:title></dc:title>
      </cc:Work>
    </rdf:RDF>
  </metadata>
  <g
     inkscape:label="Layer 1"
     inkscape:groupmode="layer"
     id="layer1"
     transform="translate(0,-161.53331)">
    <g
       id="Yellow"
       transform="matrix(0.19689463,0,0,0.19689463,58.106765,161.53331)"
       style="stroke-width:1.34378135">
      <g
         data-name="Trust Badge (Yellow)"
         id="Trust_Badge_Yellow_"
         style="stroke-width:1.34378135">
        <path
           d="m 21.78,267.74 c 0,-2.6 5.55,-3.74 9.27,-3.74 H 363.3 c 3.72,0 4.48,1.14 4.48,3.74 V 622 a 7.43,7.43 0 0 1 -4.86,6.92 L 204,687.12 a 19.61,19.61 0 0 1 -11.72,0 L 28.9,628.93 c -3.3,-1.18 -7.12,-4.29 -7.12,-6.89 z"
           class="cls-1"
           data-name="Background (Bottom)"
           id="Background_Bottom_"
           inkscape:connector-curvature="0"
           style="fill:#f8b92a;stroke-width:1.34378135" />
        <g
           data-name="Official Plate"
           id="Official_Plate"
           style="stroke-width:1.34378135">
          <polygon
             points="355.89,390.68 355.89,350.02 34.24,350.02 "
             class="cls-2"
             id="Shadow"
             style="fill:#ba8b20;stroke-width:1.34378135" />
          <path
             d="m 377.07,332.51 c 0,0 -159.77,52.81 -361.36,0 V 229.73 c 186,48.41 361.36,0 361.36,0 z"
             class="cls-3"
             data-name="Plate Background"
             id="Plate_Background"
             inkscape:connector-curvature="0"
             style="fill:#ffffff;stroke-width:1.34378135" />
          <path
             d="m 377.07,229.73 v 102.78 c 0,0 -71.02,23.49 -178.07,23.49 A 723.46,723.46 0 0 1 15.71,332.51 V 229.73 c 62,16.13 122.81,21.51 176.34,21.51 107.07,0 185,-21.51 185,-21.51 m 15.58,-20.47 -19.72,5.45 c -0.83,0.23 -77.47,20.95 -180.88,20.95 -60.84,0 -118.85,-7.07 -172.41,-21 L 0.13,209.57 v 135 l 11.64,3.05 a 739.17,739.17 0 0 0 187.22,24 c 108.32,0 180,-23.27 183,-24.26 l 10.69,-3.53 V 209.26 Z"
             class="cls-1"
             data-name="Plate Border"
             id="Plate_Border"
             inkscape:connector-curvature="0"
             style="fill:#f8b92a;stroke-width:1.34378135" />
          <g
             id="Official"
             style="stroke-width:1.34378135">
            <path
               id="path825"
               d="m 75.44,269.91 a 7.86,7.86 0 0 1 3,1.21 8.18,8.18 0 0 1 3.42,4.88 7.48,7.48 0 0 1 0.1,3.16 q -2.74,15.6 -5.51,31.21 a 7.07,7.07 0 0 1 -1.23,2.92 8.37,8.37 0 0 1 -2.22,2.22 8,8 0 0 1 -3,1.18 9.1,9.1 0 0 1 -3.41,0 Q 53.77,314.25 41,311.36 a 9.29,9.29 0 0 1 -3.11,-1.36 8.64,8.64 0 0 1 -2.3,-2.29 7.8,7.8 0 0 1 -1.2,-2.9 7.54,7.54 0 0 1 0.08,-3.17 q 3.7,-15.4 7.4,-30.81 a 7.9,7.9 0 0 1 1.33,-2.83 7.64,7.64 0 0 1 2.27,-2.05 9.12,9.12 0 0 1 2.91,-1.06 7.85,7.85 0 0 1 3.2,0.07 q 11.89,2.68 23.86,4.95 z m -6.28,10.56 q -8.07,-1.58 -16.11,-3.35 L 47.77,301 q 8.34,1.85 16.69,3.48 2.36,-11.99 4.7,-24.01 z"
               class="cls-1"
               inkscape:connector-curvature="0"
               style="fill:#f8b92a;stroke-width:1.34378135" />
            <path
               id="path827"
               d="m 130,278.29 a 1.3,1.3 0 0 1 0.28,0.95 l -0.93,8.93 a 1.24,1.24 0 0 1 -0.48,0.87 1.27,1.27 0 0 1 -1,0.28 q -11.61,-1.24 -23.2,-2.87 c -0.23,0 -0.36,0 -0.38,0.22 q -0.52,3.66 -1,7.34 a 0.3,0.3 0 0 0 0.3,0.38 q 8.88,1.26 17.79,2.28 a 1.18,1.18 0 0 1 0.87,0.47 1.3,1.3 0 0 1 0.25,1 c -0.32,2.81 -0.63,5.63 -1,8.44 a 1.29,1.29 0 0 1 -0.46,0.87 1.22,1.22 0 0 1 -1,0.27 q -9,-1 -18.08,-2.31 a 0.3,0.3 0 0 0 -0.4,0.28 q -1.08,7.58 -2.15,15.15 c -0.12,0.86 -0.64,1.22 -1.56,1.09 -3.35,-0.49 -6.7,-1 -10,-1.52 -0.92,-0.15 -1.31,-0.64 -1.18,-1.5 q 3.57,-22.22 7.12,-44.44 a 1.16,1.16 0 0 1 1.5,-1.08 q 16.86,2.67 33.8,4.47 a 1.31,1.31 0 0 1 0.91,0.43 z"
               class="cls-1"
               inkscape:connector-curvature="0"
               style="fill:#f8b92a;stroke-width:1.34378135" />
            <path
               id="path829"
               d="m 173.38,281.42 a 1.23,1.23 0 0 1 0.34,0.93 c -0.11,3 -0.23,6 -0.34,9 a 1.28,1.28 0 0 1 -0.42,0.9 1.34,1.34 0 0 1 -1,0.34 q -11.66,-0.48 -23.3,-1.35 c -0.24,0 -0.36,0.06 -0.37,0.24 -0.19,2.47 -0.37,4.93 -0.56,7.39 a 0.31,0.31 0 0 0 0.32,0.37 q 8.94,0.68 17.88,1.11 a 1.21,1.21 0 0 1 0.9,0.42 1.28,1.28 0 0 1 0.31,0.93 q -0.21,4.24 -0.4,8.49 a 1.3,1.3 0 0 1 -0.4,0.9 1.22,1.22 0 0 1 -0.95,0.33 q -9.09,-0.45 -18.17,-1.13 a 0.31,0.31 0 0 0 -0.38,0.31 q -0.57,7.64 -1.15,15.26 c -0.07,0.86 -0.57,1.25 -1.49,1.18 -3.37,-0.26 -6.73,-0.55 -10.1,-0.85 -0.93,-0.09 -1.35,-0.56 -1.27,-1.42 q 2.12,-22.41 4.21,-44.82 a 1.15,1.15 0 0 1 1.42,-1.17 q 17,1.56 34,2.26 a 1.23,1.23 0 0 1 0.92,0.38 z"
               class="cls-1"
               inkscape:connector-curvature="0"
               style="fill:#f8b92a;stroke-width:1.34378135" />
            <path
               id="path831"
               d="m 192.18,327.83 c 0,0.86 -0.48,1.29 -1.4,1.28 -3.38,-0.05 -6.75,-0.11 -10.13,-0.2 -0.93,0 -1.38,-0.47 -1.35,-1.33 q 0.64,-22.5 1.28,-45 a 1.16,1.16 0 0 1 1.34,-1.26 q 4.72,0.14 9.45,0.19 a 1.14,1.14 0 0 1 1.28,1.31 q -0.22,22.5 -0.47,45.01 z"
               class="cls-1"
               inkscape:connector-curvature="0"
               style="fill:#f8b92a;stroke-width:1.34378135" />
            <path
               id="path833"
               d="m 215.92,293.27 a 1.11,1.11 0 0 0 -0.36,0.89 q 0.25,11 0.52,22 a 1.11,1.11 0 0 0 0.41,0.88 1.45,1.45 0 0 0 1,0.31 q 11.58,-0.28 23.15,-1 a 1.34,1.34 0 0 1 1,0.31 1.26,1.26 0 0 1 0.46,0.9 l 0.54,8.95 a 1.24,1.24 0 0 1 -0.35,0.95 1.48,1.48 0 0 1 -1,0.43 q -7.65,0.44 -15.32,0.73 -6.3,0.22 -12.61,0.35 h -1.32 a 8.94,8.94 0 0 1 -3.35,-0.56 8.4,8.4 0 0 1 -2.76,-1.67 7.6,7.6 0 0 1 -1.84,-2.54 7.41,7.41 0 0 1 -0.68,-3.09 V 320 315 q 0,-7.93 -0.08,-15.85 v -4.42 -5.23 a 7.94,7.94 0 0 1 0.61,-3.1 7.52,7.52 0 0 1 1.7,-2.53 9,9 0 0 1 2.56,-1.73 7.79,7.79 0 0 1 3.1,-0.69 h 1.24 q 13,-0.26 26.07,-1 a 1.3,1.3 0 0 1 1.38,1.21 l 0.54,9 a 1.24,1.24 0 0 1 -0.33,0.94 1.31,1.31 0 0 1 -0.92,0.43 q -11.16,0.64 -22.34,0.93 a 1.35,1.35 0 0 0 -1.02,0.31 z"
               class="cls-1"
               inkscape:connector-curvature="0"
               style="fill:#f8b92a;stroke-width:1.34378135" />
            <path
               id="path835"
               d="m 267.09,324.68 c 0.08,0.86 -0.34,1.33 -1.27,1.41 -3.36,0.32 -6.73,0.61 -10.09,0.87 -0.93,0.07 -1.43,-0.32 -1.49,-1.18 q -1.73,-22.44 -3.44,-44.88 a 1.14,1.14 0 0 1 1.2,-1.39 q 4.71,-0.37 9.42,-0.81 a 1.15,1.15 0 0 1 1.42,1.16 q 2.16,22.41 4.25,44.82 z"
               class="cls-1"
               inkscape:connector-curvature="0"
               style="fill:#f8b92a;stroke-width:1.34378135" />
            <path
               id="path837"
               d="m 305.38,273.14 a 7.78,7.78 0 0 1 3.19,0.13 8.61,8.61 0 0 1 2.8,1.26 8.35,8.35 0 0 1 2.12,2.19 7.5,7.5 0 0 1 1.18,2.94 q 3.25,18.9 6.52,37.79 a 1.17,1.17 0 0 1 -0.24,1 1.39,1.39 0 0 1 -0.92,0.54 q -5,0.85 -10.09,1.65 a 1.38,1.38 0 0 1 -1,-0.22 1.21,1.21 0 0 1 -0.54,-0.84 q -0.93,-6 -1.85,-12 a 1.29,1.29 0 0 0 -0.5,-0.86 1.22,1.22 0 0 0 -1,-0.22 q -7,1.06 -14.12,2 a 1.35,1.35 0 0 0 -0.91,0.49 1.21,1.21 0 0 0 -0.28,1 l 1.54,12.01 c 0.11,0.85 -0.29,1.34 -1.22,1.46 -3.35,0.42 -6.71,0.83 -10.06,1.21 -0.93,0.1 -1.44,-0.28 -1.53,-1.13 q -2.13,-19.06 -4.24,-38.12 a 7.88,7.88 0 0 1 0.28,-3.14 7.46,7.46 0 0 1 1.43,-2.7 9.14,9.14 0 0 1 2.36,-2 7.82,7.82 0 0 1 3,-1 q 12.08,-1.51 24.08,-3.44 z m -0.62,23 q -0.92,-5.91 -1.82,-11.83 -8.1,1.25 -16.23,2.3 0.77,5.94 1.54,11.87 8.27,-1.06 16.51,-2.32 z"
               class="cls-1"
               inkscape:connector-curvature="0"
               style="fill:#f8b92a;stroke-width:1.34378135" />
            <path
               id="path839"
               d="m 362.72,298.45 a 1.27,1.27 0 0 1 1.57,1 c 0.7,2.91 1.4,5.81 2.09,8.72 a 1.24,1.24 0 0 1 -0.14,1 1.27,1.27 0 0 1 -0.85,0.59 q -15.51,3.69 -31.15,6.69 c -0.92,0.17 -1.46,-0.16 -1.62,-1 q -4.19,-22.11 -8.38,-44.23 a 1.15,1.15 0 0 1 1.05,-1.51 c 3.1,-0.6 6.21,-1.21 9.31,-1.85 a 1.14,1.14 0 0 1 1.54,1 L 343,301.6 a 1.09,1.09 0 0 0 0.57,0.79 1.45,1.45 0 0 0 1,0.13 q 9.1,-1.9 18.15,-4.07 z"
               class="cls-1"
               inkscape:connector-curvature="0"
               style="fill:#f8b92a;stroke-width:1.34378135" />
          </g>
        </g>
        <g
           data-name="Background (Top)"
           id="Background_Top_"
           style="stroke-width:1.34378135">
          <path
             id="path843"
             d="M 392.9,209.24 373,199.37 372.78,0 h -355 l 0.37,201 -18.26,9 18.26,12.69 V 223 h 0.41 l 1.12,0.78 0.08,-0.78 h 6.16 c 0,0 170.42,51.17 344.48,0.78 H 373 V 223 h 0.12 z"
             class="cls-1"
             inkscape:connector-curvature="0"
             style="fill:#f8b92a;stroke-width:1.34378135" />
        </g>
        <g
           data-name="2019 Season"
           id="_2019_Season"
           style="stroke-width:1.34378135">
          <g
             id="Season"
             style="stroke-width:1.34378135">
            <path
               id="path846"
               d="m 87.94,561.43 a 7.51,7.51 0 0 1 2.5,1.69 8.65,8.65 0 0 1 1.68,2.5 7.19,7.19 0 0 1 0.64,3 v 12.69 a 7.44,7.44 0 0 1 -0.64,3.07 8.53,8.53 0 0 1 -1.68,2.53 7.37,7.37 0 0 1 -2.5,1.69 7.79,7.79 0 0 1 -3.07,0.61 H 57.94 A 1.13,1.13 0 0 1 56.66,588 v -8.17 a 1.26,1.26 0 0 1 1.28,-1.28 h 23 a 1.29,1.29 0 0 0 0.91,-0.34 1.15,1.15 0 0 0 0.37,-0.88 v -5.6 a 1.27,1.27 0 0 0 -0.37,-0.91 1.23,1.23 0 0 0 -0.91,-0.37 H 64.55 a 7.86,7.86 0 0 1 -7.28,-4.79 7.57,7.57 0 0 1 -0.61,-3 v -12.77 a 7.79,7.79 0 0 1 0.61,-3.07 7.34,7.34 0 0 1 1.68,-2.5 8.86,8.86 0 0 1 2.53,-1.68 7.48,7.48 0 0 1 3.07,-0.64 H 90 a 1.13,1.13 0 0 1 1.28,1.28 v 8.3 a 1.13,1.13 0 0 1 -0.37,0.88 1.32,1.32 0 0 1 -0.91,0.33 H 68.47 a 1.14,1.14 0 0 0 -0.88,0.38 1.31,1.31 0 0 0 -0.34,0.91 v 5.46 a 1.31,1.31 0 0 0 0.34,0.91 1.14,1.14 0 0 0 0.88,0.38 h 16.4 a 8,8 0 0 1 3.07,0.6 z"
               class="cls-3"
               inkscape:connector-curvature="0"
               style="fill:#ffffff;stroke-width:1.34378135" />
            <path
               id="path848"
               d="m 138.76,542.37 a 1.25,1.25 0 0 1 0.37,0.91 v 8.5 a 1.17,1.17 0 0 1 -0.37,0.88 1.33,1.33 0 0 1 -0.91,0.34 h -22.61 c -0.23,0 -0.34,0.11 -0.34,0.33 v 7.36 c 0,0.18 0.11,0.27 0.34,0.27 h 19.3 a 1.13,1.13 0 0 1 0.88,0.37 1.32,1.32 0 0 1 0.33,0.91 V 569 a 1.31,1.31 0 0 1 -0.33,0.91 1.13,1.13 0 0 1 -0.88,0.37 h -19.3 a 0.3,0.3 0 0 0 -0.34,0.34 v 7.29 a 0.3,0.3 0 0 0 0.34,0.34 h 22.61 a 1.23,1.23 0 0 1 0.91,0.37 1.27,1.27 0 0 1 0.37,0.91 V 588 a 1.27,1.27 0 0 1 -0.37,0.91 1.23,1.23 0 0 1 -0.91,0.37 H 104.3 A 1.13,1.13 0 0 1 103,588 v -44.72 a 1.25,1.25 0 0 1 0.37,-0.91 1.23,1.23 0 0 1 0.91,-0.37 h 33.55 a 1.23,1.23 0 0 1 0.93,0.37 z"
               class="cls-3"
               inkscape:connector-curvature="0"
               style="fill:#ffffff;stroke-width:1.34378135" />
            <path
               id="path850"
               d="m 181.58,542 a 7.48,7.48 0 0 1 3.07,0.64 8.32,8.32 0 0 1 2.5,1.68 8.14,8.14 0 0 1 1.68,2.5 7.48,7.48 0 0 1 0.65,3.07 V 588 a 1.24,1.24 0 0 1 -0.38,0.91 1.21,1.21 0 0 1 -0.91,0.37 h -9.38 A 1.26,1.26 0 0 1 177.53,588 v -12.12 a 1.31,1.31 0 0 0 -0.34,-0.92 1.15,1.15 0 0 0 -0.88,-0.37 H 163 a 1.27,1.27 0 0 0 -0.91,0.37 1.25,1.25 0 0 0 -0.37,0.92 V 588 a 1.13,1.13 0 0 1 -1.28,1.28 h -9.32 A 1.13,1.13 0 0 1 149.84,588 v -38.11 a 7.79,7.79 0 0 1 0.61,-3.07 7.37,7.37 0 0 1 1.69,-2.5 8.73,8.73 0 0 1 2.53,-1.68 7.44,7.44 0 0 1 3.07,-0.64 z m -4.05,22.47 v -11.88 h -15.86 v 11.88 z"
               class="cls-3"
               inkscape:connector-curvature="0"
               style="fill:#ffffff;stroke-width:1.34378135" />
            <path
               id="path852"
               d="m 231.22,561.43 a 7.47,7.47 0 0 1 2.49,1.69 8.68,8.68 0 0 1 1.69,2.5 7.19,7.19 0 0 1 0.64,3 v 12.69 a 7.44,7.44 0 0 1 -0.64,3.07 8.56,8.56 0 0 1 -1.69,2.53 7.33,7.33 0 0 1 -2.49,1.69 7.79,7.79 0 0 1 -3.07,0.61 h -26.93 a 1.13,1.13 0 0 1 -1.28,-1.28 v -8.17 a 1.23,1.23 0 0 1 0.37,-0.91 1.21,1.21 0 0 1 0.91,-0.37 h 22.95 a 1.3,1.3 0 0 0 0.91,-0.34 1.15,1.15 0 0 0 0.37,-0.88 v -5.6 a 1.27,1.27 0 0 0 -0.37,-0.91 1.25,1.25 0 0 0 -0.91,-0.37 h -16.34 a 7.79,7.79 0 0 1 -3.07,-0.61 7.7,7.7 0 0 1 -2.53,-1.69 8,8 0 0 1 -1.69,-2.49 7.74,7.74 0 0 1 -0.6,-3 v -12.7 a 8,8 0 0 1 0.6,-3.07 7.51,7.51 0 0 1 1.69,-2.5 8.73,8.73 0 0 1 2.53,-1.68 7.48,7.48 0 0 1 3.07,-0.64 h 25.44 a 1.13,1.13 0 0 1 1.29,1.28 v 8.3 a 1.17,1.17 0 0 1 -0.37,0.88 1.33,1.33 0 0 1 -0.92,0.33 h -21.52 a 1.13,1.13 0 0 0 -0.88,0.38 1.27,1.27 0 0 0 -0.34,0.91 v 5.46 a 1.27,1.27 0 0 0 0.34,0.91 1.13,1.13 0 0 0 0.88,0.38 h 16.4 a 8,8 0 0 1 3.07,0.6 z"
               class="cls-3"
               inkscape:connector-curvature="0"
               style="fill:#ffffff;stroke-width:1.34378135" />
            <path
               id="path854"
               d="m 278,542 a 7.44,7.44 0 0 1 3.07,0.64 8.32,8.32 0 0 1 2.5,1.68 8.16,8.16 0 0 1 1.69,2.5 7.64,7.64 0 0 1 0.64,3.07 v 31.45 a 7.61,7.61 0 0 1 -0.64,3.07 8.56,8.56 0 0 1 -1.69,2.53 7.37,7.37 0 0 1 -2.5,1.69 7.75,7.75 0 0 1 -3.07,0.61 h -23.94 a 7.79,7.79 0 0 1 -3.07,-0.61 7.7,7.7 0 0 1 -2.53,-1.69 7.84,7.84 0 0 1 -2.29,-5.6 v -31.45 a 8,8 0 0 1 0.6,-3.07 7.51,7.51 0 0 1 1.69,-2.5 8.73,8.73 0 0 1 2.53,-1.68 7.48,7.48 0 0 1 3.07,-0.64 z m -4.05,11.47 H 258 v 24.29 h 15.9 z"
               class="cls-3"
               inkscape:connector-curvature="0"
               style="fill:#ffffff;stroke-width:1.34378135" />
            <path
               id="path856"
               d="m 335.76,542.37 a 1.25,1.25 0 0 1 0.37,0.91 V 588 a 1.27,1.27 0 0 1 -0.37,0.91 1.23,1.23 0 0 1 -0.91,0.37 h -9.72 a 2.12,2.12 0 0 1 -1.08,-0.31 2.08,2.08 0 0 1 -0.81,-0.77 L 308.32,560.66 V 588 a 1.13,1.13 0 0 1 -1.28,1.28 h -9.31 A 1.14,1.14 0 0 1 296.44,588 v -44.72 a 1.13,1.13 0 0 1 1.29,-1.28 h 9.58 a 2.21,2.21 0 0 1 1.08,0.3 2,2 0 0 1 0.81,0.78 l 15,27.6 v -27.4 a 1.25,1.25 0 0 1 0.37,-0.91 1.23,1.23 0 0 1 0.91,-0.37 h 9.39 a 1.23,1.23 0 0 1 0.89,0.37 z"
               class="cls-3"
               inkscape:connector-curvature="0"
               style="fill:#ffffff;stroke-width:1.34378135" />
          </g>
          <g
             data-name="2020"
             id="_2020"
             style="stroke-width:1.34378135">
            <path
               id="path859"
               d="M 76.25,487.83 V 498 a 1.91,1.91 0 0 0 2.06,1.71 h 38.3 a 1.9,1.9 0 0 1 1.48,0.63 2.21,2.21 0 0 1 0.57,1.54 v 13.79 a 2.21,2.21 0 0 1 -0.57,1.54 1.9,1.9 0 0 1 -1.48,0.63 H 60.52 a 1.91,1.91 0 0 1 -2.16,-2.17 V 483 a 12.91,12.91 0 0 1 1,-5.13 13.55,13.55 0 0 1 2.85,-4.22 13,13 0 0 1 4.28,-2.85 13.34,13.34 0 0 1 5.18,-1 h 27 a 2.13,2.13 0 0 0 2.17,-2.16 v -9.24 a 2.07,2.07 0 0 0 -0.63,-1.53 2.09,2.09 0 0 0 -1.54,-0.63 H 62.92 a 2,2 0 0 1 -2.06,-2.05 v -14 a 2.22,2.22 0 0 1 0.57,-1.54 2,2 0 0 1 1.49,-0.62 h 42.52 a 12.36,12.36 0 0 1 5.13,1.08 14.8,14.8 0 0 1 4.22,2.85 12.79,12.79 0 0 1 2.85,4.22 13.34,13.34 0 0 1 1,5.19 v 3.19 a 0.44,0.44 0 0 1 0.12,0.34 V 484 a 1.9,1.9 0 0 1 -0.63,1.48 2.21,2.21 0 0 1 -1.54,0.57 H 78.31 a 2,2 0 0 0 -2.06,1.78 z"
               class="cls-3"
               inkscape:connector-curvature="0"
               style="fill:#ffffff;stroke-width:1.34378135" />
            <path
               id="path861"
               d="m 178.28,438 a 12.7,12.7 0 0 1 5.19,1.08 13.38,13.38 0 0 1 7.07,7.07 12.7,12.7 0 0 1 1.08,5.19 v 53.12 a 12.77,12.77 0 0 1 -1.08,5.19 14.38,14.38 0 0 1 -2.85,4.27 12.49,12.49 0 0 1 -4.22,2.85 13.17,13.17 0 0 1 -5.19,1 H 144 a 13.24,13.24 0 0 1 -5.19,-1 13.12,13.12 0 0 1 -7.12,-7.12 13.24,13.24 0 0 1 -1,-5.19 v -53.11 a 13.17,13.17 0 0 1 1,-5.19 12.49,12.49 0 0 1 2.85,-4.22 14.38,14.38 0 0 1 4.27,-2.85 A 12.77,12.77 0 0 1 144,438 h 34.31 z m -6,19.38 H 150 v 41 h 22.23 z"
               class="cls-3"
               inkscape:connector-curvature="0"
               style="fill:#ffffff;stroke-width:1.34378135" />
            <path
               id="path863"
               d="M 221.15,487.83 V 498 a 1.9,1.9 0 0 0 2,1.71 h 38.3 a 1.93,1.93 0 0 1 1.49,0.63 2.2,2.2 0 0 1 0.56,1.54 v 13.79 a 2.2,2.2 0 0 1 -0.56,1.54 1.93,1.93 0 0 1 -1.49,0.63 h -56.03 a 1.92,1.92 0 0 1 -2.17,-2.17 V 483 a 12.74,12.74 0 0 1 1,-5.13 13.22,13.22 0 0 1 2.85,-4.22 13,13 0 0 1 4.27,-2.85 13.35,13.35 0 0 1 5.19,-1 h 27 a 2.06,2.06 0 0 0 1.53,-0.62 2.09,2.09 0 0 0 0.63,-1.54 v -9.24 a 2.15,2.15 0 0 0 -2.16,-2.16 h -35.8 a 2,2 0 0 1 -2.05,-2.05 v -14 a 2.22,2.22 0 0 1 0.57,-1.54 1.92,1.92 0 0 1 1.48,-0.62 h 42.52 a 12.29,12.29 0 0 1 5.13,1.08 14.66,14.66 0 0 1 4.22,2.85 12.64,12.64 0 0 1 2.85,4.22 13.34,13.34 0 0 1 1,5.19 v 3.19 a 0.44,0.44 0 0 1 0.12,0.34 V 484 a 1.9,1.9 0 0 1 -0.63,1.48 2.21,2.21 0 0 1 -1.54,0.57 H 223.2 a 2,2 0 0 0 -2.05,1.78 z"
               class="cls-3"
               inkscape:connector-curvature="0"
               style="fill:#ffffff;stroke-width:1.34378135" />
            <path
               id="path865"
               d="m 323.18,438 a 12.69,12.69 0 0 1 5.18,1.08 13.38,13.38 0 0 1 7.07,7.07 12.7,12.7 0 0 1 1.08,5.19 v 53.12 a 12.77,12.77 0 0 1 -1.08,5.19 14.38,14.38 0 0 1 -2.85,4.27 12.39,12.39 0 0 1 -4.22,2.85 13.16,13.16 0 0 1 -5.18,1 h -34.32 a 13.41,13.41 0 0 1 -9.46,-3.88 13,13 0 0 1 -2.85,-4.27 13.42,13.42 0 0 1 -1,-5.19 v -53.08 a 13.35,13.35 0 0 1 1,-5.19 12.49,12.49 0 0 1 2.85,-4.22 14.43,14.43 0 0 1 4.28,-2.85 12.69,12.69 0 0 1 5.18,-1.08 h 34.32 z m -6.05,19.38 H 294.9 v 41 h 22.23 z"
               class="cls-3"
               inkscape:connector-curvature="0"
               style="fill:#ffffff;stroke-width:1.34378135" />
          </g>
        </g>
        <path
           id="path869"
           d="m 80.69,142.49 a 6.18,6.18 0 0 1 0.75,0.45 1.63,1.63 0 0 1 0.46,0.76 4,4 0 0 1 0.15,0.9 v 11 c 0,0.08 0,0.23 -0.08,0.23 a 0.29,0.29 0 0 1 -0.23,0.07 H 79 a 0.26,0.26 0 0 1 -0.3,-0.3 v -9.93 h -2.15 v 9.93 c 0,0.08 0,0.23 -0.07,0.23 a 0.3,0.3 0 0 1 -0.23,0.07 h -2.48 c -0.07,0 -0.22,0 -0.22,-0.07 a 0.27,0.27 0 0 1 -0.08,-0.23 v -9.93 h -2.18 v 9.93 a 0.36,0.36 0 0 1 -0.38,0.38 h -2.7 a 0.36,0.36 0 0 1 -0.38,-0.38 v -12.88 a 0.36,0.36 0 0 1 0.38,-0.38 h 11.73 a 0.94,0.94 0 0 1 0.75,0.15 z"
           class="cls-4"
           inkscape:connector-curvature="0"
           style="fill:#ffffff;fill-rule:evenodd;stroke-width:1.34378135" />
        <path
           id="path871"
           d="m 94.31,142.27 a 3.53,3.53 0 0 1 0.9,0.15 6.18,6.18 0 0 1 0.75,0.45 1.5,1.5 0 0 1 0.45,0.75 3.53,3.53 0 0 1 0.15,0.9 v 11 c 0,0.07 0,0.22 -0.07,0.22 a 0.27,0.27 0 0 1 -0.23,0.08 h -2.71 c -0.07,0 -0.22,0 -0.22,-0.08 a 0.26,0.26 0 0 1 -0.08,-0.22 v -3.46 c 0,-0.08 0,-0.23 -0.07,-0.23 a 0.3,0.3 0 0 0 -0.23,-0.07 h -3.83 c -0.08,0 -0.23,0 -0.23,0.07 a 0.3,0.3 0 0 0 -0.07,0.23 v 3.46 a 0.35,0.35 0 0 1 -0.38,0.37 h -2.71 a 0.35,0.35 0 0 1 -0.37,-0.37 v -11 a 3.53,3.53 0 0 1 0.15,-0.9 7.07,7.07 0 0 1 0.45,-0.75 1.46,1.46 0 0 1 0.75,-0.45 1.9,1.9 0 0 1 0.9,-0.15 z m -1.21,6.47 v -3.39 h -4.59 v 3.39 z"
           class="cls-4"
           inkscape:connector-curvature="0"
           style="fill:#ffffff;fill-rule:evenodd;stroke-width:1.34378135" />
        <path
           id="path873"
           d="m 108.82,142.42 a 0.26,0.26 0 0 1 0.08,0.22 v 11 a 4,4 0 0 1 -0.15,0.9 6.18,6.18 0 0 1 -0.45,0.75 1.5,1.5 0 0 1 -0.75,0.45 1.94,1.94 0 0 1 -0.91,0.15 h -5.86 a 3.61,3.61 0 0 1 -0.91,-0.15 7.07,7.07 0 0 1 -0.75,-0.45 1.61,1.61 0 0 1 -0.45,-0.75 1.9,1.9 0 0 1 -0.15,-0.9 v -4.14 a 0.36,0.36 0 0 1 0.38,-0.38 h 2.7 a 0.36,0.36 0 0 1 0.38,0.38 v 2.78 a 0.27,0.27 0 0 0 0.08,0.23 0.27,0.27 0 0 0 0.22,0.07 h 2.78 c 0.08,0 0.23,0 0.23,-0.07 a 0.3,0.3 0 0 0 0.07,-0.23 v -9.55 c 0,-0.08 0,-0.23 0.08,-0.23 a 0.29,0.29 0 0 1 0.23,-0.07 h 2.7 c 0.23,-0.16 0.38,-0.09 0.45,-0.01 z"
           class="cls-4"
           inkscape:connector-curvature="0"
           style="fill:#ffffff;fill-rule:evenodd;stroke-width:1.34378135" />
        <path
           id="path875"
           d="m 121.09,142.27 a 3.53,3.53 0 0 1 0.9,0.15 6.18,6.18 0 0 1 0.75,0.45 1.5,1.5 0 0 1 0.45,0.75 3.53,3.53 0 0 1 0.15,0.9 v 9 a 3.53,3.53 0 0 1 -0.15,0.9 7.28,7.28 0 0 1 -0.45,0.76 1.61,1.61 0 0 1 -0.75,0.45 1.9,1.9 0 0 1 -0.9,0.15 h -6.85 a 4,4 0 0 1 -0.9,-0.15 6.18,6.18 0 0 1 -0.75,-0.45 1.63,1.63 0 0 1 -0.46,-0.76 1.9,1.9 0 0 1 -0.15,-0.9 v -9 a 4,4 0 0 1 0.15,-0.9 2.7,2.7 0 0 1 0.46,-0.75 1.46,1.46 0 0 1 0.75,-0.45 1.9,1.9 0 0 1 0.9,-0.15 z m -1.21,3.31 h -4.59 v 7 h 4.59 z"
           class="cls-4"
           inkscape:connector-curvature="0"
           style="fill:#ffffff;fill-rule:evenodd;stroke-width:1.34378135" />
        <path
           id="path877"
           d="m 138.24,155.58 a 0.15,0.15 0 0 1 0,0.23 c -0.08,0.07 -0.08,0.07 -0.23,0.07 h -3.08 a 0.46,0.46 0 0 1 -0.3,-0.07 l -0.23,-0.23 -2,-3.68 c 0,-0.08 -0.08,-0.08 -0.15,-0.08 h -2.33 c -0.08,0 -0.08,0 -0.08,0.08 v 3.61 a 0.35,0.35 0 0 1 -0.37,0.37 h -2.71 a 0.35,0.35 0 0 1 -0.38,-0.37 v -12.87 a 0.35,0.35 0 0 1 0.38,-0.37 h 8.8 a 3.53,3.53 0 0 1 0.9,0.15 6.18,6.18 0 0 1 0.75,0.45 1.5,1.5 0 0 1 0.45,0.75 1.8,1.8 0 0 1 0.16,0.9 v 5.12 a 2.25,2.25 0 0 1 -0.46,1.35 2.41,2.41 0 0 1 -1.12,0.83 h -0.08 c -0.08,0 -0.08,0.08 -0.08,0.15 v 0.08 z m -3.84,-10.15 h -4.66 v 3.31 h 4.66 z"
           class="cls-4"
           inkscape:connector-curvature="0"
           style="fill:#ffffff;fill-rule:evenodd;stroke-width:1.34378135" />
        <path
           id="path879"
           d="m 156.52,152.57 a 0.28,0.28 0 0 1 0.3,0.3 v 2.56 c 0,0.08 0,0.23 -0.08,0.23 a 0.28,0.28 0 0 1 -0.22,0.07 h -8.35 a 0.35,0.35 0 0 1 -0.38,-0.37 v -12.87 a 0.35,0.35 0 0 1 0.38,-0.37 h 2.7 a 0.35,0.35 0 0 1 0.38,0.37 v 9.56 a 0.28,0.28 0 0 0 0.3,0.3 h 5 z"
           class="cls-4"
           inkscape:connector-curvature="0"
           style="fill:#ffffff;fill-rule:evenodd;stroke-width:1.34378135" />
        <path
           id="path881"
           d="m 169.08,142.42 a 0.28,0.28 0 0 1 0.07,0.22 v 2.49 a 0.28,0.28 0 0 1 -0.07,0.22 0.27,0.27 0 0 1 -0.23,0.08 h -6.47 c -0.07,0 -0.07,0 -0.07,0.07 v 2.11 c 0,0.07 0,0.07 0.07,0.07 H 168 a 0.28,0.28 0 0 1 0.3,0.3 v 2 c 0,0.08 0,0.23 -0.08,0.23 a 0.28,0.28 0 0 1 -0.22,0.07 h -5.57 c -0.07,0 -0.07,0 -0.07,0.08 v 2.1 c 0,0.08 0,0.08 0.07,0.08 h 6.47 c 0.08,0 0.23,0 0.23,0.07 a 0.3,0.3 0 0 1 0.07,0.23 v 2.41 c 0,0.07 0,0.22 -0.07,0.22 a 0.27,0.27 0 0 1 -0.23,0.08 h -9.63 a 0.35,0.35 0 0 1 -0.37,-0.38 v -12.9 c 0,-0.08 0,-0.23 0.07,-0.23 a 0.3,0.3 0 0 1 0.23,-0.07 h 9.63 a 1.4,1.4 0 0 0 0.25,0.45 z"
           class="cls-4"
           inkscape:connector-curvature="0"
           style="fill:#ffffff;fill-rule:evenodd;stroke-width:1.34378135" />
        <path
           id="path883"
           d="m 181.41,142.27 a 3.61,3.61 0 0 1 0.91,0.15 7.07,7.07 0 0 1 0.75,0.45 1.66,1.66 0 0 1 0.45,0.75 4,4 0 0 1 0.15,0.9 v 11 c 0,0.07 0,0.22 -0.08,0.22 a 0.26,0.26 0 0 1 -0.22,0.08 h -2.78 c -0.08,0 -0.23,0 -0.23,-0.08 a 0.28,0.28 0 0 1 -0.07,-0.22 v -3.46 c 0,-0.08 0,-0.23 -0.08,-0.23 a 0.3,0.3 0 0 0 -0.23,-0.07 h -3.91 c -0.07,0 -0.22,0 -0.22,0.07 a 0.27,0.27 0 0 0 -0.08,0.23 v 3.46 a 0.35,0.35 0 0 1 -0.37,0.37 h -2.71 a 0.35,0.35 0 0 1 -0.38,-0.37 v -11 a 4,4 0 0 1 0.15,-0.9 7.07,7.07 0 0 1 0.45,-0.75 1.49,1.49 0 0 1 0.76,-0.45 1.9,1.9 0 0 1 0.9,-0.15 z m -1.2,6.47 v -3.39 h -4.59 v 3.39 z"
           class="cls-4"
           inkscape:connector-curvature="0"
           style="fill:#ffffff;fill-rule:evenodd;stroke-width:1.34378135" />
        <path
           id="path885"
           d="m 198,148.59 a 0.28,0.28 0 0 1 0.07,0.22 v 4.82 a 3.53,3.53 0 0 1 -0.15,0.9 6.18,6.18 0 0 1 -0.45,0.75 1.5,1.5 0 0 1 -0.75,0.45 1.9,1.9 0 0 1 -0.9,0.15 H 189 a 3.53,3.53 0 0 1 -0.9,-0.15 6.18,6.18 0 0 1 -0.75,-0.45 1.55,1.55 0 0 1 -0.46,-0.75 1.9,1.9 0 0 1 -0.15,-0.9 v -9 a 4,4 0 0 1 0.15,-0.9 2.75,2.75 0 0 1 0.46,-0.76 1.61,1.61 0 0 1 0.75,-0.45 1.9,1.9 0 0 1 0.9,-0.15 h 8.05 c 0.08,0 0.22,0 0.22,0.08 a 0.26,0.26 0 0 1 0.08,0.22 v 2.56 c 0,0.08 0,0.23 -0.08,0.23 a 0.27,0.27 0 0 1 -0.22,0.07 h -6.47 c -0.07,0 -0.23,0 -0.23,0.08 a 0.28,0.28 0 0 0 -0.07,0.22 v 6.32 a 0.3,0.3 0 0 0 0.07,0.23 0.31,0.31 0 0 0 0.23,0.07 h 3.84 a 0.28,0.28 0 0 0 0.22,-0.07 0.27,0.27 0 0 0 0.08,-0.23 v -3.38 c 0,-0.08 0,-0.23 0.07,-0.23 a 0.3,0.3 0 0 1 0.23,-0.07 h 2.71 a 0.57,0.57 0 0 1 0.27,0.12 z"
           class="cls-4"
           inkscape:connector-curvature="0"
           style="fill:#ffffff;fill-rule:evenodd;stroke-width:1.34378135" />
        <path
           id="path887"
           d="m 212.33,142.42 a 0.28,0.28 0 0 1 0.07,0.22 v 11 a 3.53,3.53 0 0 1 -0.15,0.9 6.18,6.18 0 0 1 -0.45,0.75 1.46,1.46 0 0 1 -0.75,0.45 1.9,1.9 0 0 1 -0.9,0.15 h -6.85 a 3.53,3.53 0 0 1 -0.9,-0.15 6.18,6.18 0 0 1 -0.75,-0.45 1.46,1.46 0 0 1 -0.45,-0.75 1.9,1.9 0 0 1 -0.15,-0.9 v -11 a 0.35,0.35 0 0 1 0.37,-0.37 h 2.71 a 0.35,0.35 0 0 1 0.38,0.37 v 9.56 a 0.28,0.28 0 0 0 0.07,0.22 0.27,0.27 0 0 0 0.23,0.08 h 3.83 a 0.27,0.27 0 0 0 0.23,-0.08 0.28,0.28 0 0 0 0.07,-0.22 v -9.56 c 0,-0.07 0,-0.22 0.08,-0.22 a 0.27,0.27 0 0 1 0.23,-0.08 H 212 c 0.18,-0.07 0.25,0 0.33,0.08 z"
           class="cls-4"
           inkscape:connector-curvature="0"
           style="fill:#ffffff;fill-rule:evenodd;stroke-width:1.34378135" />
        <path
           id="path889"
           d="m 225.79,142.42 a 0.26,0.26 0 0 1 0.08,0.22 v 2.49 a 0.28,0.28 0 0 1 -0.3,0.3 h -6.47 c -0.08,0 -0.08,0 -0.08,0.07 v 2.11 c 0,0.07 0,0.07 0.08,0.07 h 5.57 a 0.28,0.28 0 0 1 0.3,0.3 v 2 c 0,0.08 0,0.23 -0.08,0.23 a 0.28,0.28 0 0 1 -0.22,0.07 h -5.57 c -0.08,0 -0.08,0 -0.08,0.08 v 2.1 c 0,0.08 0,0.08 0.08,0.08 h 6.47 c 0.07,0 0.22,0 0.22,0.07 a 0.27,0.27 0 0 1 0.08,0.23 v 2.41 c 0,0.07 0,0.22 -0.08,0.22 a 0.26,0.26 0 0 1 -0.22,0.08 h -9.63 a 0.36,0.36 0 0 1 -0.38,-0.38 v -12.9 c 0,-0.08 0,-0.23 0.08,-0.23 a 0.28,0.28 0 0 1 0.22,-0.07 h 9.63 a 1.6,1.6 0 0 0 0.3,0.45 z"
           class="cls-4"
           inkscape:connector-curvature="0"
           style="fill:#ffffff;fill-rule:evenodd;stroke-width:1.34378135" />
        <path
           id="path891"
           d="m 246.63,142.27 c 0.08,0 0.23,0 0.23,0.07 a 0.3,0.3 0 0 1 0.07,0.23 v 12.86 c 0,0.08 0,0.23 -0.07,0.23 a 0.3,0.3 0 0 1 -0.23,0.07 h -2.71 c -0.07,0 -0.22,0 -0.22,-0.07 a 0.27,0.27 0 0 1 -0.08,-0.23 v -4.51 a 0.26,0.26 0 0 0 -0.3,-0.3 h -3.84 c -0.07,0 -0.22,0 -0.22,0.07 a 0.27,0.27 0 0 0 -0.08,0.23 v 4.51 a 0.35,0.35 0 0 1 -0.37,0.38 h -2.71 a 0.36,0.36 0 0 1 -0.38,-0.38 v -12.86 a 0.36,0.36 0 0 1 0.38,-0.38 h 2.71 a 0.35,0.35 0 0 1 0.37,0.38 v 4.36 a 0.36,0.36 0 0 0 0.38,0.38 h 3.84 a 0.28,0.28 0 0 0 0.3,-0.3 v -4.37 c 0,-0.07 0,-0.22 0.07,-0.22 a 0.27,0.27 0 0 1 0.23,-0.08 h 2.63 z"
           class="cls-4"
           inkscape:connector-curvature="0"
           style="fill:#ffffff;fill-rule:evenodd;stroke-width:1.34378135" />
        <path
           id="path893"
           d="m 259.19,142.27 a 3.68,3.68 0 0 1 0.91,0.15 7.07,7.07 0 0 1 0.75,0.45 1.66,1.66 0 0 1 0.45,0.75 4,4 0 0 1 0.15,0.9 v 11 c 0,0.07 0,0.22 -0.08,0.22 a 0.26,0.26 0 0 1 -0.22,0.08 h -2.71 c -0.07,0 -0.23,0 -0.23,-0.08 a 0.28,0.28 0 0 1 -0.07,-0.22 v -3.46 c 0,-0.08 0,-0.23 -0.08,-0.23 a 0.28,0.28 0 0 0 -0.22,-0.07 H 254 c -0.07,0 -0.22,0 -0.22,0.07 a 0.27,0.27 0 0 0 -0.08,0.23 v 3.46 a 0.35,0.35 0 0 1 -0.37,0.37 h -2.71 a 0.35,0.35 0 0 1 -0.38,-0.37 v -11 a 4,4 0 0 1 0.15,-0.9 7.07,7.07 0 0 1 0.45,-0.75 1.49,1.49 0 0 1 0.76,-0.45 1.9,1.9 0 0 1 0.9,-0.15 z m -1.13,6.47 v -3.39 h -4.58 v 3.39 z"
           class="cls-4"
           inkscape:connector-curvature="0"
           style="fill:#ffffff;fill-rule:evenodd;stroke-width:1.34378135" />
        <path
           id="path895"
           d="m 268,145.65 a 0.3,0.3 0 0 0 -0.07,0.23 v 6.32 a 0.28,0.28 0 0 0 0.07,0.22 0.27,0.27 0 0 0 0.23,0.08 h 6.24 c 0.08,0 0.23,0 0.23,0.07 a 0.3,0.3 0 0 1 0.07,0.23 v 2.56 c 0,0.07 0,0.22 -0.07,0.22 a 0.27,0.27 0 0 1 -0.23,0.08 h -7.75 a 4,4 0 0 1 -0.9,-0.15 7.07,7.07 0 0 1 -0.75,-0.45 1.53,1.53 0 0 1 -0.45,-0.76 1.9,1.9 0 0 1 -0.15,-0.9 v -9.1 a 3.53,3.53 0 0 1 0.15,-0.9 7.28,7.28 0 0 1 0.45,-0.76 1.66,1.66 0 0 1 0.75,-0.45 1.9,1.9 0 0 1 0.9,-0.15 h 7.75 c 0.08,0 0.23,0 0.23,0.08 a 0.28,0.28 0 0 1 0.07,0.22 v 2.56 c 0,0.08 0,0.23 -0.07,0.23 a 0.3,0.3 0 0 1 -0.23,0.07 h -6.24 c -0.09,0.38 -0.16,0.45 -0.23,0.45 z"
           class="cls-4"
           inkscape:connector-curvature="0"
           style="fill:#ffffff;fill-rule:evenodd;stroke-width:1.34378135" />
        <path
           id="path897"
           d="m 285.67,148 c -0.07,0.08 -0.07,0.08 0,0.15 l 4.51,7.45 a 0.14,0.14 0 0 1 0,0.23 c -0.07,0.07 -0.07,0.07 -0.22,0.07 h -3.24 a 0.49,0.49 0 0 1 -0.3,-0.07 l -0.22,-0.23 -2.94,-5.26 c -0.07,-0.08 -0.07,-0.08 -0.07,0 l -1.58,1.73 a 0.37,0.37 0 0 0 -0.15,0.3 0.62,0.62 0 0 0 -0.08,0.37 v 2.86 a 0.35,0.35 0 0 1 -0.37,0.38 h -2.64 A 0.35,0.35 0 0 1 278,155.6 v -12.88 a 0.35,0.35 0 0 1 0.37,-0.38 h 2.71 a 0.36,0.36 0 0 1 0.38,0.38 v 5.79 l 5,-5.87 a 1,1 0 0 1 0.3,-0.22 0.53,0.53 0 0 1 0.3,-0.08 h 3.23 c 0.08,0 0.15,0 0.15,0.08 a 0.28,0.28 0 0 1 -0.07,0.22 z"
           class="cls-4"
           inkscape:connector-curvature="0"
           style="fill:#ffffff;fill-rule:evenodd;stroke-width:1.34378135" />
        <rect
           id="rect899"
           rx="0.51063687"
           height="13.62"
           width="3.46"
           y="142.27"
           x="292.67001"
           class="cls-3"
           style="fill:#ffffff;stroke-width:1.34378135"
           ry="0.51063687" />
        <path
           id="path901"
           d="m 309.21,142.49 a 6.37,6.37 0 0 1 0.76,0.45 1.69,1.69 0 0 1 0.45,0.76 1.9,1.9 0 0 1 0.15,0.9 v 11 c 0,0.08 0,0.23 -0.08,0.23 a 0.28,0.28 0 0 1 -0.22,0.07 h -2.71 a 0.26,0.26 0 0 1 -0.3,-0.3 V 146 a 0.27,0.27 0 0 0 -0.08,-0.23 0.28,0.28 0 0 0 -0.22,-0.07 h -3.84 c -0.07,0 -0.22,0 -0.22,0.07 0,0.07 -0.08,0.15 -0.08,0.23 v 9.55 a 0.36,0.36 0 0 1 -0.38,0.38 h -2.7 a 0.36,0.36 0 0 1 -0.38,-0.38 v -12.83 a 0.36,0.36 0 0 1 0.38,-0.38 h 8.8 a 0.81,0.81 0 0 1 0.67,0.15 z"
           class="cls-4"
           inkscape:connector-curvature="0"
           style="fill:#ffffff;fill-rule:evenodd;stroke-width:1.34378135" />
        <path
           id="path903"
           d="m 324.94,148.59 a 0.28,0.28 0 0 1 0.07,0.22 v 4.82 a 3.53,3.53 0 0 1 -0.15,0.9 6.18,6.18 0 0 1 -0.45,0.75 1.5,1.5 0 0 1 -0.75,0.45 1.92,1.92 0 0 1 -0.91,0.15 h -6.84 a 3.53,3.53 0 0 1 -0.9,-0.15 7.28,7.28 0 0 1 -0.76,-0.45 1.61,1.61 0 0 1 -0.45,-0.75 1.9,1.9 0 0 1 -0.15,-0.9 v -9 a 4,4 0 0 1 0.15,-0.9 2.73,2.73 0 0 1 0.45,-0.76 1.69,1.69 0 0 1 0.76,-0.45 1.9,1.9 0 0 1 0.9,-0.15 h 8 c 0.07,0 0.22,0 0.22,0.08 a 0.26,0.26 0 0 1 0.08,0.22 v 2.56 c 0,0.08 0,0.23 -0.08,0.23 a 0.28,0.28 0 0 1 -0.22,0.07 h -6.47 c -0.08,0 -0.23,0 -0.23,0.08 a 0.28,0.28 0 0 0 -0.07,0.22 v 6.32 a 0.26,0.26 0 0 0 0.3,0.3 h 3.84 a 0.28,0.28 0 0 0 0.22,-0.07 0.27,0.27 0 0 0 0.08,-0.23 v -3.38 c 0,-0.08 0,-0.23 0.07,-0.23 a 0.3,0.3 0 0 1 0.23,-0.07 h 2.71 a 0.38,0.38 0 0 1 0.35,0.12 z"
           class="cls-4"
           inkscape:connector-curvature="0"
           style="fill:#ffffff;fill-rule:evenodd;stroke-width:1.34378135" />
        <path
           id="path905"
           d="m 157.27,56.29 a 16,16 0 0 0 -3.09,-4.51 14.53,14.53 0 0 0 -4.51,-3.09 15.67,15.67 0 0 0 -5.57,-1.2 h -74 a 2.17,2.17 0 0 0 -2.41,2.41 v 83.27 A 2,2 0 0 0 70,135.5 h 16.93 a 2,2 0 0 0 2.34,-2.33 V 68.33 H 103 v 64.84 a 2.32,2.32 0 0 0 2.33,2.33 h 15.5 a 2.06,2.06 0 0 0 1.58,-0.68 2.46,2.46 0 0 0 0.6,-1.65 V 68.33 h 13.77 v 64.84 a 2.46,2.46 0 0 0 0.6,1.65 2,2 0 0 0 1.58,0.68 h 17.07 a 2.32,2.32 0 0 0 2.34,-2.33 V 61.86 a 13.94,13.94 0 0 0 -1.1,-5.57 z"
           class="cls-4"
           inkscape:connector-curvature="0"
           style="fill:#ffffff;fill-rule:evenodd;stroke-width:1.34378135" />
        <path
           id="path907"
           d="m 234.44,114.81 a 2.08,2.08 0 0 0 -1.65,-0.68 v 0.08 h -35.58 a 2.33,2.33 0 0 1 -1.73,-0.6 2,2 0 0 1 -0.75,-1.66 V 50 a 2.17,2.17 0 0 0 -2.48,-2.41 H 174.34 A 2.17,2.17 0 0 0 171.86,50 v 83.2 a 2.17,2.17 0 0 0 2.48,2.4 h 58.45 a 2.19,2.19 0 0 0 1.65,-0.67 2.49,2.49 0 0 0 0.68,-1.73 v -16.66 a 2.36,2.36 0 0 0 -0.68,-1.73 z"
           class="cls-4"
           inkscape:connector-curvature="0"
           style="fill:#ffffff;fill-rule:evenodd;stroke-width:1.34378135" />
        <path
           id="path909"
           d="m 324.33,48.24 a 2.38,2.38 0 0 0 -1.73,-0.68 h -18.2 a 2.38,2.38 0 0 0 -1.73,0.68 2.27,2.27 0 0 0 -0.75,1.73 v 28.21 a 2.33,2.33 0 0 1 -2.41,2.41 H 274 a 2.12,2.12 0 0 1 -2.41,-1.91 V 50 a 2.17,2.17 0 0 0 -2.48,-2.41 H 251 A 2.17,2.17 0 0 0 248.51,50 v 83.42 a 2.17,2.17 0 0 0 2.49,2.38 h 18.13 a 2.17,2.17 0 0 0 2.48,-2.41 v -29.65 a 2.52,2.52 0 0 1 0.68,-1.11 A 2.66,2.66 0 0 1 274,102 h 25.5 a 2.22,2.22 0 0 1 2.41,2.26 v 29.11 a 2.44,2.44 0 0 0 0.75,1.73 2.38,2.38 0 0 0 1.73,0.68 h 18.2 a 2.38,2.38 0 0 0 1.73,-0.68 2.27,2.27 0 0 0 0.76,-1.73 V 50 a 2.41,2.41 0 0 0 -0.75,-1.76 z"
           class="cls-4"
           inkscape:connector-curvature="0"
           style="fill:#ffffff;fill-rule:evenodd;stroke-width:1.34378135" />
        <path
           id="path911"
           d="m 94.92,193.6 a 2.37,2.37 0 0 1 -0.93,2 4,4 0 0 1 -2.51,0.71 6.25,6.25 0 0 1 -2.65,-0.44 v -1.08 a 7.92,7.92 0 0 0 1.3,0.39 6.64,6.64 0 0 0 1.39,0.15 2.75,2.75 0 0 0 1.69,-0.43 1.39,1.39 0 0 0 0.57,-1.19 1.56,1.56 0 0 0 -0.2,-0.82 2,2 0 0 0 -0.67,-0.59 10,10 0 0 0 -1.44,-0.62 4.55,4.55 0 0 1 -1.93,-1.14 2.51,2.51 0 0 1 -0.54,-1.74 2.15,2.15 0 0 1 0.8,-1.8 3.49,3.49 0 0 1 2.22,-0.66 6.57,6.57 0 0 1 2.65,0.53 l -0.35,1 a 6,6 0 0 0 -2.32,-0.5 2.29,2.29 0 0 0 -1.4,0.38 1.26,1.26 0 0 0 -0.5,1.07 1.66,1.66 0 0 0 0.18,0.82 1.81,1.81 0 0 0 0.63,0.59 7.92,7.92 0 0 0 1.34,0.59 5.35,5.35 0 0 1 2.1,1.16 2.32,2.32 0 0 1 0.57,1.62 z"
           class="cls-3"
           inkscape:connector-curvature="0"
           style="fill:#ffffff;stroke-width:1.34378135" />
        <path
           id="path913"
           d="m 100.1,196.3 a 3,3 0 0 1 -1.29,-0.26 2.37,2.37 0 0 1 -1,-0.8 h -0.08 a 10.21,10.21 0 0 1 0.08,1.2 v 3 h -1.1 v -10.5 h 0.89 l 0.16,1 v 0 a 2.65,2.65 0 0 1 1,-0.86 3.13,3.13 0 0 1 1.29,-0.26 2.67,2.67 0 0 1 2.23,1 5.26,5.26 0 0 1 0,5.53 2.7,2.7 0 0 1 -2.18,0.95 z m -0.15,-6.58 a 1.94,1.94 0 0 0 -1.61,0.62 3.16,3.16 0 0 0 -0.51,1.95 v 0.25 a 3.64,3.64 0 0 0 0.51,2.19 2,2 0 0 0 1.63,0.65 1.68,1.68 0 0 0 1.47,-0.76 3.53,3.53 0 0 0 0.53,-2.09 3.42,3.42 0 0 0 -0.53,-2.08 1.72,1.72 0 0 0 -1.44,-0.73 z"
           class="cls-3"
           inkscape:connector-curvature="0"
           style="fill:#ffffff;stroke-width:1.34378135" />
        <path
           id="path915"
           d="m 111.29,192.54 a 4,4 0 0 1 -0.9,2.77 3.13,3.13 0 0 1 -2.46,1 3.31,3.31 0 0 1 -1.73,-0.45 3,3 0 0 1 -1.16,-1.31 4.5,4.5 0 0 1 -0.41,-2 4,4 0 0 1 0.88,-2.76 3.13,3.13 0 0 1 2.46,-1 3.08,3.08 0 0 1 2.42,1 4,4 0 0 1 0.9,2.75 z m -5.52,0 a 3.46,3.46 0 0 0 0.55,2.12 1.93,1.93 0 0 0 1.63,0.72 2,2 0 0 0 1.64,-0.72 3.44,3.44 0 0 0 0.56,-2.12 3.39,3.39 0 0 0 -0.56,-2.1 2.24,2.24 0 0 0 -3.28,0 3.43,3.43 0 0 0 -0.54,2.1 z"
           class="cls-3"
           inkscape:connector-curvature="0"
           style="fill:#ffffff;stroke-width:1.34378135" />
        <path
           id="path917"
           d="m 118.17,196.17 v -4.69 a 1.88,1.88 0 0 0 -0.4,-1.32 1.65,1.65 0 0 0 -1.26,-0.44 2.09,2.09 0 0 0 -1.67,0.62 3.11,3.11 0 0 0 -0.53,2 v 3.8 h -1.1 v -7.25 h 0.89 l 0.18,1 h 0.06 a 2.31,2.31 0 0 1 0.94,-0.83 3.19,3.19 0 0 1 1.36,-0.29 2.76,2.76 0 0 1 2,0.63 2.7,2.7 0 0 1 0.66,2 v 4.73 z"
           class="cls-3"
           inkscape:connector-curvature="0"
           style="fill:#ffffff;stroke-width:1.34378135" />
        <path
           id="path919"
           d="m 126.2,194.19 a 1.8,1.8 0 0 1 -0.75,1.56 3.54,3.54 0 0 1 -2.12,0.55 4.67,4.67 0 0 1 -2.25,-0.45 v -1 a 5.73,5.73 0 0 0 1.12,0.41 4.37,4.37 0 0 0 1.16,0.16 2.54,2.54 0 0 0 1.32,-0.28 0.89,0.89 0 0 0 0.46,-0.83 0.91,0.91 0 0 0 -0.36,-0.73 5.88,5.88 0 0 0 -1.44,-0.71 7.36,7.36 0 0 1 -1.43,-0.66 1.86,1.86 0 0 1 -0.64,-0.64 1.75,1.75 0 0 1 0.51,-2.25 3.37,3.37 0 0 1 2,-0.51 5.77,5.77 0 0 1 2.29,0.48 l -0.39,0.89 a 5.28,5.28 0 0 0 -2,-0.45 2.34,2.34 0 0 0 -1.18,0.24 0.77,0.77 0 0 0 -0.39,0.68 0.79,0.79 0 0 0 0.15,0.49 1.31,1.31 0 0 0 0.48,0.39 8.82,8.82 0 0 0 1.27,0.54 4.62,4.62 0 0 1 1.74,0.95 1.65,1.65 0 0 1 0.45,1.17 z"
           class="cls-3"
           inkscape:connector-curvature="0"
           style="fill:#ffffff;stroke-width:1.34378135" />
        <path
           id="path921"
           d="m 134.24,192.54 a 4,4 0 0 1 -0.89,2.77 3.17,3.17 0 0 1 -2.47,1 3.29,3.29 0 0 1 -1.72,-0.45 3,3 0 0 1 -1.17,-1.31 4.64,4.64 0 0 1 -0.41,-2 4,4 0 0 1 0.89,-2.76 3.13,3.13 0 0 1 2.46,-1 3.1,3.1 0 0 1 2.42,1 4,4 0 0 1 0.89,2.75 z m -5.52,0 a 3.46,3.46 0 0 0 0.56,2.12 1.93,1.93 0 0 0 1.63,0.72 2,2 0 0 0 1.64,-0.72 3.44,3.44 0 0 0 0.56,-2.12 3.39,3.39 0 0 0 -0.56,-2.1 2,2 0 0 0 -1.65,-0.72 2,2 0 0 0 -1.63,0.71 3.37,3.37 0 0 0 -0.55,2.11 z"
           class="cls-3"
           inkscape:connector-curvature="0"
           style="fill:#ffffff;stroke-width:1.34378135" />
        <path
           id="path923"
           d="m 139.47,188.79 a 4.45,4.45 0 0 1 0.87,0.08 l -0.15,1 a 3.56,3.56 0 0 0 -0.8,-0.1 2,2 0 0 0 -1.5,0.71 2.6,2.6 0 0 0 -0.63,1.78 v 3.89 h -1.09 v -7.25 h 0.9 l 0.13,1.34 h 0.05 a 3.34,3.34 0 0 1 1,-1.09 2.24,2.24 0 0 1 1.22,-0.36 z"
           class="cls-3"
           inkscape:connector-curvature="0"
           style="fill:#ffffff;stroke-width:1.34378135" />
        <path
           id="path925"
           d="m 144.76,196.3 a 3.32,3.32 0 0 1 -2.54,-1 3.76,3.76 0 0 1 -0.93,-2.71 4.2,4.2 0 0 1 0.87,-2.79 2.84,2.84 0 0 1 2.31,-1 2.74,2.74 0 0 1 2.16,0.9 3.4,3.4 0 0 1 0.79,2.36 v 0.69 h -5 a 2.89,2.89 0 0 0 0.64,1.94 2.25,2.25 0 0 0 1.73,0.66 5.74,5.74 0 0 0 2.31,-0.49 v 1 a 5.22,5.22 0 0 1 -1.1,0.36 5.63,5.63 0 0 1 -1.24,0.08 z m -0.3,-6.59 a 1.78,1.78 0 0 0 -1.39,0.57 2.58,2.58 0 0 0 -0.61,1.57 h 3.79 a 2.41,2.41 0 0 0 -0.47,-1.59 1.62,1.62 0 0 0 -1.32,-0.55 z"
           class="cls-3"
           inkscape:connector-curvature="0"
           style="fill:#ffffff;stroke-width:1.34378135" />
        <path
           id="path927"
           d="m 154.23,195.2 h -0.06 a 2.6,2.6 0 0 1 -2.28,1.1 2.69,2.69 0 0 1 -2.21,-1 4.26,4.26 0 0 1 -0.79,-2.76 4.35,4.35 0 0 1 0.8,-2.79 2.94,2.94 0 0 1 4.47,0.08 h 0.08 v -0.52 -0.51 -3 h 1.1 v 10.29 h -0.9 z m -2.2,0.18 a 2,2 0 0 0 1.63,-0.61 3.06,3.06 0 0 0 0.51,-2 v -0.23 a 3.65,3.65 0 0 0 -0.51,-2.2 2,2 0 0 0 -1.64,-0.66 1.69,1.69 0 0 0 -1.48,0.75 3.75,3.75 0 0 0 -0.51,2.12 3.6,3.6 0 0 0 0.51,2.1 1.72,1.72 0 0 0 1.46,0.73 z"
           class="cls-3"
           inkscape:connector-curvature="0"
           style="fill:#ffffff;stroke-width:1.34378135" />
        <path
           id="path929"
           d="M 161.28,186.5 H 164 a 5.13,5.13 0 0 1 2.79,0.58 2,2 0 0 1 0.85,1.82 2.08,2.08 0 0 1 -0.48,1.41 2.23,2.23 0 0 1 -1.39,0.73 v 0.06 c 1.46,0.26 2.2,1 2.2,2.32 a 2.46,2.46 0 0 1 -0.88,2 3.69,3.69 0 0 1 -2.45,0.73 h -3.37 z m 1.12,4.14 h 1.86 a 3,3 0 0 0 1.71,-0.37 1.44,1.44 0 0 0 0.52,-1.26 1.28,1.28 0 0 0 -0.58,-1.18 3.65,3.65 0 0 0 -1.85,-0.36 h -1.66 z m 0,1 v 3.62 h 2 a 2.87,2.87 0 0 0 1.76,-0.45 1.66,1.66 0 0 0 0.59,-1.42 1.5,1.5 0 0 0 -0.6,-1.32 3.16,3.16 0 0 0 -1.84,-0.43 z"
           class="cls-3"
           inkscape:connector-curvature="0"
           style="fill:#ffffff;stroke-width:1.34378135" />
        <path
           id="path931"
           d="m 168.74,188.92 h 1.18 l 1.58,4.14 a 14.77,14.77 0 0 1 0.65,2 v 0 c 0.06,-0.23 0.18,-0.61 0.36,-1.15 0.18,-0.54 0.79,-2.22 1.8,-5 h 1.18 l -3.12,8.26 a 4.15,4.15 0 0 1 -1.08,1.73 2.31,2.31 0 0 1 -1.52,0.51 4.17,4.17 0 0 1 -1,-0.11 v -0.88 a 3.37,3.37 0 0 0 0.81,0.08 1.67,1.67 0 0 0 1.62,-1.27 l 0.4,-1 z"
           class="cls-3"
           inkscape:connector-curvature="0"
           style="fill:#ffffff;stroke-width:1.34378135" />
        <path
           id="path933"
           d="m 291.09,189.62 v -1.86 h -2.32 v -2.89 h -0.07 l -2.17,0.66 v 0 2.19 h -3.42 v -1.22 a 1.92,1.92 0 0 1 0.38,-1.3 1.3,1.3 0 0 1 1.05,-0.43 2.46,2.46 0 0 1 1,0.23 l 0.09,0.05 v -2 0 a 4,4 0 0 0 -1.28,-0.17 3.73,3.73 0 0 0 -1.81,0.44 3,3 0 0 0 -1.25,1.23 3.59,3.59 0 0 0 -0.45,1.8 v 1.34 h -1.61 v 1.86 h 1.61 v 7.83 h 2.31 v -7.83 h 3.42 v 5 c 0,2 1,3.09 2.87,3.09 a 4.29,4.29 0 0 0 1,-0.11 2.72,2.72 0 0 0 0.71,-0.22 v 0 -1.87 l -0.09,0.07 a 2.19,2.19 0 0 1 -0.46,0.2 1.93,1.93 0 0 1 -0.46,0.08 1.26,1.26 0 0 1 -1,-0.36 1.92,1.92 0 0 1 -0.32,-1.25 v -4.57 h 2.32 z"
           class="cls-3"
           inkscape:connector-curvature="0"
           style="fill:#ffffff;stroke-width:1.34378135" />
        <path
           id="path935"
           d="m 277.65,188.86 a 4.72,4.72 0 0 0 -3.55,-1.33 5.06,5.06 0 0 0 -3.78,1.4 5.19,5.19 0 0 0 -1.36,3.8 4.88,4.88 0 0 0 1.33,3.62 4.81,4.81 0 0 0 3.57,1.34 4.92,4.92 0 0 0 3.7,-1.41 5.24,5.24 0 0 0 1.36,-3.76 5,5 0 0 0 -1.27,-3.66 z m -1.74,6.14 a 2.3,2.3 0 0 1 -1.91,0.81 2.46,2.46 0 0 1 -2,-0.83 3.5,3.5 0 0 1 -0.7,-2.33 3.7,3.7 0 0 1 0.7,-2.39 2.65,2.65 0 0 1 3.83,0 3.52,3.52 0 0 1 0.7,2.38 3.81,3.81 0 0 1 -0.62,2.36 z"
           class="cls-3"
           inkscape:connector-curvature="0"
           style="fill:#ffffff;stroke-width:1.34378135" />
        <path
           id="path937"
           d="m 265.24,187.53 a 4.15,4.15 0 0 0 -2.67,0.83 2.6,2.6 0 0 0 -1,2.14 3,3 0 0 0 0.22,1.21 2.39,2.39 0 0 0 0.69,0.9 5.85,5.85 0 0 0 1.41,0.78 10.22,10.22 0 0 1 1.16,0.55 1.63,1.63 0 0 1 0.51,0.42 1,1 0 0 1 0.14,0.55 c 0,0.66 -0.48,1 -1.49,1 a 4,4 0 0 1 -1.27,-0.23 4.82,4.82 0 0 1 -1.28,-0.65 l -0.1,-0.07 v 2.22 0 a 5.88,5.88 0 0 0 1.22,0.38 6.66,6.66 0 0 0 1.31,0.15 4.37,4.37 0 0 0 2.82,-0.84 2.66,2.66 0 0 0 1.05,-2.2 2.57,2.57 0 0 0 -0.56,-1.67 4.78,4.78 0 0 0 -1.92,-1.22 5.23,5.23 0 0 1 -1.38,-0.71 1,1 0 0 1 -0.27,-0.75 0.86,0.86 0 0 1 0.35,-0.69 1.61,1.61 0 0 1 1,-0.28 4,4 0 0 1 1.17,0.18 4.07,4.07 0 0 1 1,0.47 l 0.09,0.07 v -2.07 0 a 4.9,4.9 0 0 0 -1,-0.29 6.13,6.13 0 0 0 -1.13,-0.12"
           class="cls-3"
           inkscape:connector-curvature="0"
           style="fill:#ffffff;stroke-width:1.34378135" />
        <path
           id="path939"
           d="m 259.16,188.86 a 4.72,4.72 0 0 0 -3.55,-1.33 5,5 0 0 0 -3.77,1.4 5.19,5.19 0 0 0 -1.37,3.8 4.93,4.93 0 0 0 1.33,3.62 4.84,4.84 0 0 0 3.57,1.34 4.92,4.92 0 0 0 3.7,-1.41 5.24,5.24 0 0 0 1.36,-3.76 5,5 0 0 0 -1.27,-3.66 z m -1.73,6.14 a 2.32,2.32 0 0 1 -1.92,0.81 2.45,2.45 0 0 1 -2,-0.83 3.49,3.49 0 0 1 -0.71,-2.33 3.64,3.64 0 0 1 0.71,-2.39 2.37,2.37 0 0 1 1.94,-0.84 2.41,2.41 0 0 1 1.89,0.8 3.58,3.58 0 0 1 0.69,2.38 3.82,3.82 0 0 1 -0.6,2.4 z"
           class="cls-3"
           inkscape:connector-curvature="0"
           style="fill:#ffffff;stroke-width:1.34378135" />
        <path
           id="path941"
           d="m 247,189.44 v -1.68 h -2.28 v 9.69 H 247 v -5 a 3.41,3.41 0 0 1 0.57,-2.05 1.74,1.74 0 0 1 1.48,-0.78 2.55,2.55 0 0 1 0.69,0.1 1.63,1.63 0 0 1 0.52,0.22 l 0.1,0.06 v -2.3 0 a 2.36,2.36 0 0 0 -0.89,-0.13 2.38,2.38 0 0 0 -1.53,0.54 3.09,3.09 0 0 0 -0.88,1.3 z"
           class="cls-3"
           inkscape:connector-curvature="0"
           style="fill:#ffffff;stroke-width:1.34378135" />
        <path
           id="path943"
           d="m 240.61,187.53 a 5.52,5.52 0 0 0 -2.77,0.67 4.42,4.42 0 0 0 -1.83,1.88 6.1,6.1 0 0 0 -0.63,2.79 5.16,5.16 0 0 0 0.61,2.49 4.44,4.44 0 0 0 1.71,1.73 5.11,5.11 0 0 0 2.5,0.6 5.54,5.54 0 0 0 2.75,-0.64 v 0 -2.09 l -0.1,0.07 a 4.48,4.48 0 0 1 -1.11,0.57 3.45,3.45 0 0 1 -1.09,0.22 2.78,2.78 0 0 1 -2.13,-0.84 3.24,3.24 0 0 1 -0.79,-2.3 3.31,3.31 0 0 1 0.82,-2.36 2.78,2.78 0 0 1 2.14,-0.89 3.67,3.67 0 0 1 2.17,0.76 l 0.1,0.06 v -2.25 0 a 3.52,3.52 0 0 0 -1.06,-0.36 6.56,6.56 0 0 0 -1.29,-0.13"
           class="cls-3"
           inkscape:connector-curvature="0"
           style="fill:#ffffff;stroke-width:1.34378135" />
        <rect
           id="rect945"
           height="9.6899996"
           width="2.28"
           y="187.75999"
           x="231.53"
           class="cls-3"
           style="fill:#ffffff;stroke-width:1.34378135" />
        <path
           id="path947"
           d="m 232.69,183.63 a 1.39,1.39 0 0 0 -1,0.38 1.23,1.23 0 0 0 -0.41,1 1.17,1.17 0 0 0 0.41,0.93 1.36,1.36 0 0 0 1,0.38 1.4,1.4 0 0 0 1,-0.38 1.17,1.17 0 0 0 0.41,-0.93 1.26,1.26 0 0 0 -0.4,-0.94 1.33,1.33 0 0 0 -1,-0.39"
           class="cls-3"
           inkscape:connector-curvature="0"
           style="fill:#ffffff;stroke-width:1.34378135" />
        <polygon
           id="polygon949"
           points="214.69,197.46 216.88,197.46 216.88,187.04 216.96,187.04 221.15,197.46 222.8,197.46 226.93,187.05 227.01,187.05 227.01,197.46 229.33,197.46 229.33,183.93 226.12,183.93 222.02,193.97 218.05,183.93 214.69,183.93 "
           class="cls-3"
           style="fill:#ffffff;stroke-width:1.34378135" />
        <rect
           id="rect951"
           height="10.72"
           width="10.72"
           y="179.41"
           x="185.36"
           class="cls-3"
           style="fill:#ffffff;stroke-width:1.34378135" />
        <rect
           id="rect953"
           height="10.72"
           width="10.72"
           y="179.41"
           x="197.21001"
           class="cls-3"
           style="fill:#ffffff;stroke-width:1.34378135" />
        <rect
           id="rect955"
           height="10.73"
           width="10.72"
           y="191.25999"
           x="185.36"
           class="cls-3"
           style="fill:#ffffff;stroke-width:1.34378135" />
        <rect
           id="rect957"
           height="10.73"
           width="10.72"
           y="191.25999"
           x="197.21001"
           class="cls-3"
           style="fill:#ffffff;stroke-width:1.34378135" />
      </g>
    </g>
  </g>
</svg>
