<?xml version="1.0" encoding="UTF-8" standalone="no"?>
<!-- Created with Inkscape (http://www.inkscape.org/) -->

<svg
   xmlns:dc="http://purl.org/dc/elements/1.1/"
   xmlns:cc="http://creativecommons.org/ns#"
   xmlns:rdf="http://www.w3.org/1999/02/22-rdf-syntax-ns#"
   xmlns:svg="http://www.w3.org/2000/svg"
   xmlns="http://www.w3.org/2000/svg"
   xmlns:sodipodi="http://sodipodi.sourceforge.net/DTD/sodipodi-0.dtd"
   xmlns:inkscape="http://www.inkscape.org/namespaces/inkscape"
   width="1080"
   height="5400"
   viewBox="0 0 285.74999 1428.7501"
   version="1.1"
   id="svg8"
   sodipodi:docname="grassbg.svg"
   inkscape:version="0.92.3 (2405546, 2018-03-11)">
  <defs
     id="defs2" />
  <sodipodi:namedview
     id="base"
     pagecolor="#ffffff"
     bordercolor="#666666"
     borderopacity="1.0"
     inkscape:pageopacity="0.0"
     inkscape:pageshadow="2"
     inkscape:zoom="0.12768771"
     inkscape:cx="537.19013"
     inkscape:cy="-385.63414"
     inkscape:document-units="px"
     inkscape:current-layer="layer1"
     showgrid="false"
     units="px"
     inkscape:window-width="1366"
     inkscape:window-height="704"
     inkscape:window-x="0"
     inkscape:window-y="27"
     inkscape:window-maximized="1" />
  <metadata
     id="metadata5">
    <rdf:RDF>
      <cc:Work
         rdf:about="">
        <dc:format>image/svg+xml</dc:format>
        <dc:type
           rdf:resource="http://purl.org/dc/dcmitype/StillImage" />
        <dc:title></dc:title>
      </cc:Work>
    </rdf:RDF>
  </metadata>
  <g
     inkscape:label="Layer 1"
     inkscape:groupmode="layer"
     id="layer1"
     transform="translate(0,1131.75)">
    <path
       style="fill:#090909;fill-opacity:1;stroke:none;stroke-width:0.26458335px;stroke-linecap:butt;stroke-linejoin:miter;stroke-opacity:1"
       d="m 484.11439,13.379569 c -9.8317,5.388087 -19.43074,11.861404 -29.84945,15.629736 -12.40088,4.48526 -16.40628,7.980544 -23.24843,12.602815 -7.39524,4.995917 -5.18388,7.90235 -9.3245,8.288443 -9.0167,0.840764 -9.50709,6.321234 -14.5048,9.065499 -15.09722,8.289961 -29.70388,19.048995 -46.62254,22.275218 -4.93066,0.940228 -10.10079,-2.020462 -15.02282,-1.036055 -4.73272,0.946545 -8.24252,5.413492 -12.9507,6.475359 -2.10598,0.474976 -4.38279,-0.660526 -6.47535,-0.129513 -2.45486,0.622951 -4.27443,2.764003 -6.60486,3.755707 -4.06784,1.731049 -8.47155,2.531818 -12.71768,3.762349 -4.51052,1.307151 -9.27451,1.910535 -13.55315,3.846169 -14.56474,6.589014 -27.06616,17.029974 -40.29314,26.007374 -7.13466,4.84243 -12.8801,12.29738 -21.06232,15.01836 -20.45495,6.80221 -43.10249,1.98951 -64.65249,1.46521 -5.1398,-0.12505 -10.38982,0.11921 -15.38475,-1.09892 -7.04043,-1.71698 -13.34195,-5.6635 -19.96353,-8.60806 -7.36364,-3.27455 -13.99905,-8.94234 -21.97821,-10.07329 -12.284289,-1.74116 -24.934605,9.07643 -36.813327,5.49452 -4.014419,-1.21051 -8.608076,-7.87549 -9.340684,-8.42494 C 63.019062,117.1461 27.629754,110.41284 14.11789,99.01419 -8.8032599,79.677803 -8.4126429,40.73094 -31.30319,21.358318 -38.781018,15.029713 -49.516158,14.117305 -58.775634,10.918732 -67.116419,8.0375124 -75.456441,5.0472552 -84.050283,3.043277 -97.050638,0.01175279 -113.90071,-12.344476 -123.61072,-3.1838507 -197.39942,66.429912 -167.74555,230.1796 -93.859376,299.68986 33.067296,419.09987 292.76304,428.16035 428.58844,318.97811 509.28344,254.11204 493.892,8.0211245 484.11439,13.379569 Z"
       id="path3146"
       inkscape:connector-curvature="0"
       sodipodi:nodetypes="ssssssssssssssssssssssssssss" />
    <path
       style="fill:#090909;fill-opacity:1;stroke:none;stroke-width:0.26458335px;stroke-linecap:butt;stroke-linejoin:miter;stroke-opacity:1"
       d="m 254.59533,126.30363 c -3.87109,-1.43485 -6.35378,-7.47465 -4.94507,-11.35533 0.37265,-1.02656 2.70451,-0.39673 2.93041,-1.46521 0.75346,-3.56383 -8.36427,-5.064 -6.95972,-8.42492 1.06349,-2.54481 6.613,1.49319 8.24178,-0.7326 1.99436,-2.72536 -4.28158,-7.232534 -2.19781,-9.890154 1.69554,-2.162475 6.6715,2.071934 8.24178,-0.183144 2.14034,-3.073735 -3.75373,-6.878312 -3.66301,-10.62273 0.0398,-1.643347 0.4703,-3.657195 1.8315,-4.578774 1.11218,-0.752985 3.01679,0.882454 4.02932,0 1.34732,-1.174243 -0.14311,-3.753387 0.7326,-5.311352 1.04185,-1.853528 2.83078,-4.25464 4.94507,-4.029313 2.33226,0.248556 2.63825,3.941146 4.39561,5.494496 1.39646,1.234344 3.15724,1.982427 4.76192,2.93042 1.81247,1.070748 4.51447,1.250482 5.49451,3.113564 0.65617,1.247396 -1.06641,2.989181 -0.3663,4.212457 0.70534,1.232429 3.34496,0.502926 3.84617,1.831526 0.32822,0.870037 -1.51212,1.731065 -1.09891,2.564103 0.55927,1.127499 2.98512,-0.144669 3.66302,0.91575 0.70296,1.099616 -1.729,3.003246 -0.73261,3.846168 1.34198,1.13529 3.49624,-2.826866 4.94507,-1.831525 4.12653,2.834916 2.81797,10.761288 0.18315,15.018358 -7.45807,12.04999 -24.99063,23.42346 -38.27848,18.49821 z"
       id="path3148"
       inkscape:connector-curvature="0"
       sodipodi:nodetypes="sssssssssssssssssssssss" />
    <path
       style="fill:#090909;fill-opacity:1;stroke:none;stroke-width:0.26458335px;stroke-linecap:butt;stroke-linejoin:miter;stroke-opacity:1"
       d="m 171.9941,142.23774 c 0.37959,-2.79723 1.30261,-5.71006 3.11358,-7.87548 0.96732,-1.15665 3.42197,-0.93403 3.84618,-2.38096 0.43791,-1.49361 -2.69167,-2.81093 -2.01467,-4.21246 0.95337,-1.97367 5.66696,0.59676 6.41031,-1.46521 0.78268,-2.17106 -5.23365,-3.42491 -4.21248,-5.49452 1.2156,-2.46369 6.99112,2.44606 8.24182,0 1.23423,-2.41383 -5.8608,-4.11503 -4.76194,-6.59342 0.44815,-1.01077 2.43688,0.32882 3.29673,-0.36629 0.90081,-0.72822 0.60108,-2.25079 1.09891,-3.2967 0.6842,-1.43747 0.9862,-3.81801 2.56412,-4.02932 0.89955,-0.12047 1.15581,2.12487 2.01467,1.8315 0.99732,-0.34066 -0.22908,-2.40322 0.54946,-3.11356 0.54306,-0.4955 1.73321,0.38657 2.19781,-0.18315 0.9715,-1.1913 -1.4962,-3.3677 -0.54945,-4.57877 0.60628,-0.77555 2.17233,0.26169 2.93042,-0.36629 2.91418,-2.413992 -0.2328,-10.073946 3.47989,-10.805901 2.50784,-0.49442 2.40333,5.590307 4.94509,5.860812 1.68785,0.179628 2.3454,-3.326754 4.02934,-3.113564 2.76229,0.349711 3.9237,4.083157 5.12825,6.593443 0.57014,1.188186 -0.0153,2.91344 0.91575,3.84617 1.10888,1.11087 3.68548,-0.1917 4.57879,1.09889 1.12052,1.61885 -1.46665,4.03397 -0.7326,5.86082 0.46924,1.16783 2.38952,1.24453 2.93043,2.38095 0.78713,1.65374 -1.2747,4.17939 0,5.49453 1.36033,1.4035 4.45647,-1.1763 5.86083,0.18314 2.06585,1.99977 -1.39127,6.48668 0.54945,8.60809 1.08401,1.18494 3.62291,-0.39959 4.76192,0.7326 1.09623,1.08967 0.076,3.1795 0.7326,4.57878 0.55137,1.17501 2.52661,1.63299 2.56411,2.93039 0.16089,5.56632 -5.24988,10.74881 -10.25644,13.18686 -16.08236,7.8316 -40.37848,11.7954 -53.66343,-0.18317 -1.27681,-1.15125 -0.78063,-3.42464 -0.54945,-5.12821 z"
       id="path3150"
       inkscape:connector-curvature="0"
       sodipodi:nodetypes="sssssssssssssssssssssssssssssssss" />
    <path
       style="fill:#090909;fill-opacity:1;stroke:none;stroke-width:0.26458335px;stroke-linecap:butt;stroke-linejoin:miter;stroke-opacity:1"
       d="m 105.41874,128.12284 c 4.13146,-2.61188 9.88343,-7.21293 8.54746,-11.91464 -0.30678,-1.07965 -2.80575,-0.21419 -3.10816,-1.29508 -1.06549,-3.80838 8.19722,-5.81659 6.99338,-9.58353 -0.49868,-1.5604 -3.77415,-0.17756 -4.66226,-1.55408 -1.36466,-2.11514 2.34348,-5.541033 0.77704,-7.511414 -2.59903,-3.269249 -12.09813,2.60897 -12.43267,-1.554084 -0.29544,-3.676511 10.44302,0.575968 10.61958,-3.108166 0.17805,-3.715294 -9.10098,-0.644431 -10.36057,-4.144222 -1.09904,-3.053686 6.17297,-5.675078 4.66226,-8.54747 -1.17171,-2.227829 -5.27133,0.37107 -7.511413,-0.777029 -1.850414,-0.948382 -4.391703,-2.597735 -4.144224,-4.662249 0.324956,-2.710845 6.827537,-1.933613 6.734367,-4.662276 -0.0782,-2.289948 -7.075313,-0.621623 -9.464568,-3.616365 -2.536119,-3.178824 -0.5369,-10.955174 -2.968109,-10.888418 -5.720956,0.157087 -8.223233,6.166389 -9.842536,11.655639 -0.29233,0.990963 -8.590269,-0.0066 -8.892315,2.285678 -0.274634,2.084263 7.452438,7.471818 7.079214,8.333908 -1.204472,2.782147 -7.321366,0.335482 -8.547466,3.108166 -1.471934,3.328608 6.202734,7.100092 4.144228,10.101554 -2.344465,3.418413 -10.500928,-3.926507 -12.432679,-0.259027 -2.623996,4.981726 10.926919,8.202615 9.842537,13.727745 -0.687394,3.5024 -8.389945,2.1936 -9.065493,5.69831 -0.444531,2.3062 4.073459,3.35074 4.144225,5.69833 0.111131,3.68669 -6.958525,5.77463 -5.957324,9.3245 1.876227,6.65238 11.801626,8.12338 18.649016,9.0655 9.126736,1.25573 19.409386,0.002 27.19648,-4.92128 z"
       id="path3175"
       inkscape:connector-curvature="0"
       sodipodi:nodetypes="sssssssssssssssssssssssssss" />
    <path
       style="fill:#090909;fill-opacity:1;stroke:none;stroke-width:0.26458335px;stroke-linecap:butt;stroke-linejoin:miter;stroke-opacity:1"
       d="m 21.498171,110.50987 c -2.320935,-4.03704 3.79209,-9.22889 2.590141,-13.727747 -0.821833,-3.076096 -7.338384,-4.272658 -6.216339,-7.252388 1.075712,-2.856687 7.789979,1.478187 9.065495,-1.295056 0.940777,-2.045449 -4.310008,-3.553261 -3.626199,-5.698331 0.764519,-2.398254 6.49512,-0.381784 6.993382,-2.84914 0.435047,-2.154319 -5.614319,-2.681358 -4.662255,-4.662249 1.354708,-2.818643 7.488618,3.567753 9.324507,1.036055 1.224862,-1.68909 -4.152635,-4.315608 -2.590141,-5.698331 1.363927,-1.207002 3.003902,3.602174 4.662254,2.849166 2.791605,-1.267584 -1.059604,-7.462859 1.554086,-9.065499 2.234919,-1.370389 5.863644,4.370182 7.511408,2.331138 0.996194,-1.232752 -3.267324,-2.865311 -2.331125,-4.144221 1.250232,-1.7079 5.096384,3.091081 6.216338,1.295056 1.041753,-1.670617 -4.558436,-2.928137 -3.6262,-4.66225 1.599079,-2.974553 8.373069,3.678325 10.101552,0.777055 1.630229,-2.736349 -7.306124,-5.657512 -5.180283,-8.029443 2.577011,-2.87533 6.527374,5.644129 10.360565,5.180277 2.24986,-0.272254 3.020416,-5.08952 5.180283,-4.403249 3.312902,1.052634 -0.0386,7.82711 2.590141,10.101554 1.838621,1.590817 6.414532,-1.505315 7.252393,0.777055 1.683628,4.586276 -12.471012,6.347092 -10.101548,10.619582 1.66707,3.005972 8.216996,-4.946733 10.101548,-2.072111 2.14062,3.265218 -7.99462,5.888142 -6.734365,9.583499 0.84621,2.481281 6.811387,-0.195282 7.511407,2.331138 1.453129,5.244442 -11.369,6.75377 -10.87859,12.173665 0.266129,2.941201 6.973155,2.486158 6.993379,5.439305 0.03029,4.42256 -9.568245,3.93733 -10.360565,8.28844 -0.57563,3.16114 5.779924,5.19219 4.921269,8.28845 -1.021983,3.68521 -6.28846,5.14671 -10.101549,5.4393 -12.878556,0.98821 -30.083287,-1.75296 -36.520989,-12.95072 z"
       id="path3177"
       inkscape:connector-curvature="0"
       sodipodi:nodetypes="sssssssssssssssssssssssssssssss" />
    <path
       style="fill:#090909;fill-opacity:1;stroke:none;stroke-width:0.26458335px;stroke-linecap:butt;stroke-linejoin:miter;stroke-opacity:1"
       d="M 2.590141,97.818179 C 0.94519047,93.989016 6.1378462,89.753114 5.4392961,85.64454 4.8732311,82.315187 -0.08093027,80.473232 0,77.09707 0.04305362,75.301005 3.3266089,74.477073 3.1081692,72.693821 2.8030176,70.202689 -2.9967835,70.249134 -2.590141,67.772544 -2.1822978,65.288641 3.9312485,67.39592 4.4032399,64.923405 4.9413936,62.1043 -3.0287731,61.5659 -1.8130987,58.966073 c 1.65581887,-3.541115 9.3699278,4.466325 11.6556347,1.295083 0.722806,-1.002837 -2.0724308,-2.244943 -1.5540848,-3.367194 0.9398787,-2.034896 5.9295158,0.360881 6.4753528,-1.81311 0.728625,-2.90201 -7.6397847,-3.46013 -6.4753528,-6.216333 0.974987,-2.307788 5.0601668,0.776613 7.5114088,0.259027 2.909194,-0.614284 5.540032,-5.511142 8.029437,-3.885221 1.953057,1.275613 -2.095023,5.554401 -0.259013,6.993388 0.989421,0.775467 2.750615,-1.938086 3.626198,-1.036056 1.388329,1.430264 -3.455898,4.569444 -1.8131,5.698305 1.366891,0.939269 2.375767,-3.795332 3.885211,-3.108166 1.88752,0.859283 -1.274896,4.820547 0.259014,6.216333 1.214973,1.105568 4.215689,-1.742442 4.921268,-0.259001 1.050214,2.208018 -5.28053,3.020761 -4.921268,5.439278 0.295886,1.991875 5.620473,1.143136 5.180282,3.108166 -0.569016,2.540106 -7.721752,-1.825549 -7.770421,0.777055 -0.04726,2.527066 6.924765,-1.422429 7.511407,1.036055 0.633699,2.655687 -6.582917,1.936206 -6.734365,4.66225 -0.196882,3.543859 7.740633,3.455832 8.029437,6.993387 0.264451,3.239253 -5.758914,4.293737 -6.21634,7.511416 -0.397305,2.794769 4.258838,5.092068 3.367185,7.770415 -1.099345,3.30221 -7.797572,1.939055 -9.065495,5.18028 -1.253403,3.20411 5.797147,7.69619 3.108171,9.84252 -7.348911,5.86587 -20.6359393,-5.6063 -24.347327,-14.245771 z"
       id="path3179"
       inkscape:connector-curvature="0"
       sodipodi:nodetypes="ssssssssssssssssssssssssssssss" />
  </g>
</svg>
