<?xml version="1.0" encoding="UTF-8" standalone="no"?>
<!-- Created with Inkscape (http://www.inkscape.org/) -->

<svg
   xmlns:dc="http://purl.org/dc/elements/1.1/"
   xmlns:cc="http://creativecommons.org/ns#"
   xmlns:rdf="http://www.w3.org/1999/02/22-rdf-syntax-ns#"
   xmlns:svg="http://www.w3.org/2000/svg"
   xmlns="http://www.w3.org/2000/svg"
   xmlns:sodipodi="http://sodipodi.sourceforge.net/DTD/sodipodi-0.dtd"
   xmlns:inkscape="http://www.inkscape.org/namespaces/inkscape"
   width="1080"
   height="5400"
   viewBox="0 0 285.74999 1428.7501"
   version="1.1"
   id="svg8"
   sodipodi:docname="bggrass.svg"
   inkscape:version="0.92.3 (2405546, 2018-03-11)"
   inkscape:export-filename="/mnt/sda3/repos/github/hackCamp1/images/bggrass.png"
   inkscape:export-xdpi="40.766212"
   inkscape:export-ydpi="40.766212">
  <defs
     id="defs2" />
  <sodipodi:namedview
     id="base"
     pagecolor="#ffffff"
     bordercolor="#666666"
     borderopacity="1.0"
     inkscape:pageopacity="0.0"
     inkscape:pageshadow="2"
     inkscape:zoom="0.12768771"
     inkscape:cx="-3914.8237"
     inkscape:cy="-72.369849"
     inkscape:document-units="px"
     inkscape:current-layer="layer1"
     showgrid="false"
     units="px"
     inkscape:window-width="1366"
     inkscape:window-height="704"
     inkscape:window-x="0"
     inkscape:window-y="27"
     inkscape:window-maximized="1" />
  <metadata
     id="metadata5">
    <rdf:RDF>
      <cc:Work
         rdf:about="">
        <dc:format>image/svg+xml</dc:format>
        <dc:type
           rdf:resource="http://purl.org/dc/dcmitype/StillImage" />
        <dc:title />
      </cc:Work>
    </rdf:RDF>
  </metadata>
  <g
     inkscape:label="Layer 1"
     inkscape:groupmode="layer"
     id="layer1"
     transform="translate(0,1131.75)">
    <path
       style="fill:#000000;fill-opacity:1;stroke:none;stroke-width:0.26458335px;stroke-linecap:butt;stroke-linejoin:miter;stroke-opacity:1"
       d="m 479.97016,-98.748289 c -9.8317,5.388087 -19.43074,11.861404 -29.84945,15.629736 -12.40088,4.48526 -16.40628,7.980544 -23.24843,12.602815 -7.39524,4.99592 -5.18388,7.902355 -9.3245,8.288448 -9.0167,0.840764 -9.50709,6.321238 -14.5048,9.065504 -15.09722,8.289963 -29.70388,19.048997 -46.62254,22.27522 -4.93066,0.940228 -10.10079,-2.020462 -15.02282,-1.036055 -4.73272,0.946545 -8.24252,5.413492 -12.9507,6.475359 -2.10598,0.474976 -4.38279,-0.660526 -6.47535,-0.129513 -2.45486,0.622951 -4.27443,2.764003 -6.60486,3.755707 -4.06784,1.731049 -8.47155,2.531818 -12.71768,3.762349 -4.51052,1.307151 -9.27451,1.910535 -13.55315,3.846169 -14.56474,6.5890123 -27.06616,17.0299662 -40.29314,26.007362 -7.13466,4.84243 -12.8801,12.29738 -21.06232,15.01836 -20.45495,6.80221 -43.10249,1.98951 -64.65249,1.46521 -5.1398,-0.12505 -10.38982,0.11921 -15.38475,-1.09892 -7.04043,-1.71698 -13.34195,-5.6635 -19.96353,-8.60806 C 120.37601,15.296852 113.7406,9.6290623 105.76144,8.4981129 93.477155,6.7569541 80.826839,17.574542 68.948117,13.992632 64.933698,12.782122 60.340041,6.1171444 59.607433,5.5676947 58.874836,5.018245 23.485528,-1.715011 9.9736644,-13.113656 -12.947485,-32.450043 -12.556868,-71.396918 -35.447416,-90.76954 c -7.477828,-6.328605 -18.212968,-7.241013 -27.472444,-10.43959 -8.340785,-2.88124 -16.680807,-5.87151 -25.274649,-7.8755 -13.000351,-3.03154 -29.850431,-15.38784 -39.560441,-6.22716 -73.7887,69.613856 -48.27906,444.7187 25.60712,514.22896 126.926674,119.41001 419.77622,87.02823 555.60162,-22.15401 80.695,-64.86607 36.29398,-480.86991 26.51637,-475.511449 z"
       id="path3146"
       inkscape:connector-curvature="0"
       sodipodi:nodetypes="ssssssssssssssssssssssssssss" />
    <path
       style="fill:#000000;fill-opacity:1;stroke:none;stroke-width:0.26458335px;stroke-linecap:butt;stroke-linejoin:miter;stroke-opacity:1"
       d="m 250.4511,14.175772 c -3.87109,-1.43485 -6.35378,-7.4746479 -4.94507,-11.3553258 0.37265,-1.0265594 2.70451,-0.3967297 2.93041,-1.4652091 0.75346,-3.5638278 -8.36427,-5.0639972 -6.95972,-8.4249151 1.06349,-2.5448085 6.613,1.4931891 8.24178,-0.7325997 1.99436,-2.7253583 -4.28158,-7.2325323 -2.19781,-9.8901523 1.69554,-2.162475 6.6715,2.071934 8.24178,-0.183144 2.14034,-3.073735 -3.75373,-6.878312 -3.66301,-10.62273 0.0398,-1.643347 0.4703,-3.657195 1.8315,-4.578774 1.11218,-0.752985 3.01679,0.882454 4.02932,0 1.34732,-1.174243 -0.14311,-3.753387 0.7326,-5.311352 1.04185,-1.853528 2.83078,-4.25464 4.94507,-4.029313 2.33226,0.248556 2.63825,3.941146 4.39561,5.494496 1.39646,1.234344 3.15724,1.982427 4.76192,2.93042 1.81247,1.070748 4.51447,1.250482 5.49451,3.113564 0.65617,1.247396 -1.06641,2.989181 -0.3663,4.212457 0.70534,1.232429 3.34496,0.502926 3.84617,1.831526 0.32822,0.870037 -1.51212,1.731065 -1.09891,2.564103 0.55927,1.127499 2.98512,-0.144669 3.66302,0.91575 0.70296,1.099616 -1.729,3.003246 -0.73261,3.846168 1.34198,1.13529 3.49624,-2.826866 4.94507,-1.831525 4.12653,2.834916 2.81797,10.7612869 0.18315,15.0183545 -7.45807,12.049983 -24.99063,23.4234515 -38.27848,18.4982015 z"
       id="path3148"
       inkscape:connector-curvature="0"
       sodipodi:nodetypes="sssssssssssssssssssssss" />
    <path
       style="fill:#000000;fill-opacity:1;stroke:none;stroke-width:0.26458335px;stroke-linecap:butt;stroke-linejoin:miter;stroke-opacity:1"
       d="m 167.84987,30.109882 c 0.37959,-2.79723 1.30261,-5.71006 3.11358,-7.87548 0.96732,-1.15665 3.42197,-0.93403 3.84618,-2.38096 0.43791,-1.49361 -2.69167,-2.81093 -2.01467,-4.21246 0.95337,-1.97367 5.66696,0.59676 6.41031,-1.46521 0.78268,-2.17106 -5.23365,-3.42491 -4.21248,-5.4945191 1.2156,-2.4636885 6.99112,2.4460591 8.24182,0 1.23423,-2.4138285 -5.8608,-4.1150276 -4.76194,-6.5934164 0.44815,-1.0107694 2.43688,0.32882 3.29673,-0.3662897 0.90081,-0.72821938 0.60108,-2.25078873 1.09891,-3.2966981 0.6842,-1.4374691 0.9862,-3.8180076 2.56412,-4.0293176 0.89955,-0.12047 1.15581,2.1248688 2.01467,1.8314991 0.99732,-0.34066 -0.22908,-2.4032188 0.54946,-3.1135585 0.54306,-0.4954997 1.73321,0.38657 2.19781,-0.1831497 0.9715,-1.1912994 -1.4962,-3.367698 -0.54945,-4.578768 0.60628,-0.77555 2.17233,0.26169 2.93042,-0.36629 2.91418,-2.413992 -0.2328,-10.073946 3.47989,-10.805901 2.50784,-0.49442 2.40333,5.590307 4.94509,5.860812 1.68785,0.179628 2.3454,-3.326754 4.02934,-3.113564 2.76229,0.349711 3.9237,4.083157 5.12825,6.593443 0.57014,1.188186 -0.0153,2.91344 0.91575,3.8461695 1.10888,1.1108694 3.68548,-0.1917 4.57879,1.0988894 1.12052,1.6188488 -1.46665,4.0339676 -0.7326,5.8608164 0.46924,1.1678294 2.38952,1.2445294 2.93043,2.38094876 0.78713,1.65373904 -1.2747,4.17938754 0,5.49452694 1.36033,1.4034991 4.45647,-1.1762994 5.86083,0.1831397 2.06585,1.9997688 -1.39127,6.4866773 0.54945,8.6080873 1.08401,1.18494 3.62291,-0.39959 4.76192,0.7326 1.09623,1.08967 0.076,3.1795 0.7326,4.57878 0.55137,1.17501 2.52661,1.63299 2.56411,2.93039 0.16089,5.56632 -5.24988,10.74881 -10.25644,13.18686 -16.08236,7.831582 -40.37848,11.795358 -53.66343,-0.18317 -1.27681,-1.15125 -0.78063,-3.42464 -0.54945,-5.12821 z"
       id="path3150"
       inkscape:connector-curvature="0"
       sodipodi:nodetypes="sssssssssssssssssssssssssssssssss" />
    <path
       style="fill:#000000;fill-opacity:1;stroke:none;stroke-width:0.26458335px;stroke-linecap:butt;stroke-linejoin:miter;stroke-opacity:1"
       d="m 101.27451,15.994982 c 4.13146,-2.61188 9.88343,-7.2129291 8.54746,-11.9146364 -0.30678,-1.0796494 -2.80575,-0.21419 -3.10816,-1.2950794 -1.06549,-3.8083778 8.19722,-5.8165866 6.99338,-9.5835245 -0.49868,-1.5603991 -3.77415,-0.1775597 -4.66226,-1.5540791 -1.36466,-2.1151386 2.34348,-5.5410316 0.77704,-7.5114126 -2.59903,-3.269249 -12.098126,2.60897 -12.432666,-1.554084 -0.29544,-3.676511 10.443016,0.575968 10.619576,-3.108166 0.17805,-3.715294 -9.100976,-0.644431 -10.360566,-4.144222 -1.09904,-3.053686 6.172966,-5.675078 4.662256,-8.54747 -1.17171,-2.227829 -5.271326,0.37107 -7.511409,-0.777029 -1.850414,-0.948382 -4.391703,-2.597735 -4.144224,-4.662249 0.324956,-2.710845 6.827537,-1.933613 6.734367,-4.662276 -0.0782,-2.289948 -7.075313,-0.621623 -9.464568,-3.616365 -2.536119,-3.178824 -0.5369,-10.955179 -2.968109,-10.888423 -5.720956,0.157087 -8.223233,6.166393 -9.842536,11.655644 -0.29233,0.990963 -8.590269,-0.0066 -8.892315,2.285678 -0.274634,2.084263 7.452438,7.471818 7.079214,8.333908 -1.204472,2.782147 -7.321366,0.335482 -8.547466,3.108166 -1.471934,3.328608 6.202734,7.100092 4.144228,10.101554 -2.344465,3.418413 -10.500928,-3.926507 -12.432679,-0.259027 -2.623996,4.981726 10.926919,8.202615 9.842537,13.7277439 -0.687394,3.5023982 -8.389945,2.1935988 -9.065493,5.6983067 -0.444531,2.30619878 4.073459,3.35073814 4.144225,5.6983269 0.111131,3.6866879 -6.958525,5.7746267 -5.957324,9.3244955 1.876227,6.65238 11.801626,8.12338 18.649016,9.0655 9.126736,1.25573 19.409386,0.002 27.196476,-4.92128 z"
       id="path3175"
       inkscape:connector-curvature="0"
       sodipodi:nodetypes="sssssssssssssssssssssssssss" />
    <path
       style="fill:#000000;fill-opacity:1;stroke:none;stroke-width:0.26458335px;stroke-linecap:butt;stroke-linejoin:miter;stroke-opacity:1"
       d="m 17.353945,-1.6179813 c -2.320935,-4.0370376 3.79209,-9.2288847 2.590141,-13.7277417 -0.821833,-3.076096 -7.338384,-4.272658 -6.216339,-7.252388 1.075712,-2.856687 7.789979,1.478187 9.065495,-1.295056 0.940777,-2.045449 -4.310008,-3.553261 -3.626199,-5.698331 0.764519,-2.398254 6.49512,-0.381784 6.993382,-2.84914 0.435047,-2.154319 -5.614319,-2.681358 -4.662255,-4.662249 1.354708,-2.818643 7.488618,3.567753 9.324507,1.036055 1.224862,-1.68909 -4.152635,-4.315608 -2.590141,-5.698331 1.363927,-1.207002 3.003902,3.602174 4.662254,2.849166 2.791605,-1.267584 -1.059604,-7.462859 1.554086,-9.065499 2.234919,-1.370389 5.863644,4.370182 7.511408,2.331138 0.996194,-1.232752 -3.267324,-2.865311 -2.331125,-4.144221 1.250232,-1.707901 5.096384,3.091081 6.216338,1.295056 1.041753,-1.670617 -4.558436,-2.928138 -3.6262,-4.662252 1.599079,-2.974555 8.373069,3.678327 10.101552,0.777055 1.630229,-2.73635 -7.306124,-5.657515 -5.180283,-8.029447 2.577011,-2.875332 6.527374,5.644132 10.360565,5.18028 2.24986,-0.272254 3.020416,-5.089523 5.180283,-4.403252 3.312902,1.052635 -0.0386,7.827115 2.590141,10.10156 1.838621,1.590817 6.414532,-1.505316 7.252393,0.777055 1.683628,4.586276 -12.471012,6.347092 -10.101548,10.619582 1.66707,3.005972 8.216996,-4.946733 10.101548,-2.072111 2.14062,3.265218 -7.99462,5.888142 -6.734365,9.583499 0.84621,2.481281 6.811387,-0.195282 7.511407,2.331138 1.453129,5.244442 -11.369,6.75377 -10.87859,12.173665 0.266129,2.941201 6.973155,2.486158 6.993379,5.439305 0.03029,4.4225574 -9.568245,3.9373277 -10.360565,8.2884353 -0.57563,3.16113812 5.779924,5.1921869 4.921269,8.2884451 C 62.9545,9.5786423 57.688023,11.040142 53.874934,11.332732 40.996378,12.320942 23.791647,9.5797723 17.353945,-1.6179813 Z"
       id="path3177"
       inkscape:connector-curvature="0"
       sodipodi:nodetypes="sssssssssssssssssssssssssssssss" />
    <path
       style="fill:#000000;fill-opacity:1;stroke:none;stroke-width:0.26458335px;stroke-linecap:butt;stroke-linejoin:miter;stroke-opacity:1"
       d="m -1.5540846,-14.309667 c -1.6449505,-3.829163 3.5477052,-8.065065 2.8491551,-12.173639 -0.56606499,-3.329353 -5.5202264,-5.171308 -5.4392961,-8.54747 0.043054,-1.796065 3.32660891,-2.619997 3.1081692,-4.403249 -0.3051516,-2.491132 -6.1049527,-2.444687 -5.6983102,-4.921277 0.4078432,-2.483903 6.52138951,-0.376624 6.99338091,-2.849139 0.5381537,-2.819105 -7.43201301,-3.357505 -6.21633861,-5.957334 1.6558189,-3.541117 9.3699278,4.466327 11.6556347,1.295084 0.722806,-1.002838 -2.0724308,-2.244944 -1.5540848,-3.367196 0.9398787,-2.034897 5.9295154,0.360881 6.4753524,-1.813111 0.728625,-2.902012 -7.6397843,-3.460132 -6.4753524,-6.216337 0.974987,-2.307789 5.0601668,0.776614 7.5114084,0.259027 2.909194,-0.614284 5.540032,-5.511145 8.029437,-3.885223 1.953057,1.275614 -2.095023,5.554404 -0.259013,6.993392 0.989421,0.775468 2.750615,-1.938087 3.626198,-1.036056 1.388329,1.430264 -3.455898,4.569446 -1.8131,5.698308 1.366891,0.93927 2.375767,-3.795334 3.885211,-3.108168 1.88752,0.859284 -1.274896,4.82055 0.259014,6.216337 1.214973,1.105568 4.215689,-1.742443 4.921268,-0.259002 1.050214,2.20802 -5.28053,3.020763 -4.921268,5.43928 0.295886,1.991875 5.620473,1.143136 5.180282,3.108166 -0.569016,2.540106 -7.721752,-1.825549 -7.770421,0.777055 -0.04726,2.527066 6.924765,-1.422429 7.511407,1.036055 0.633699,2.655687 -6.582917,1.936206 -6.734365,4.66225 -0.196882,3.543859 7.740633,3.455832 8.029437,6.993387 0.264451,3.239253 -5.758914,4.293737 -6.21634,7.511416 -0.397305,2.794769 4.258838,5.092068 3.367185,7.770415 -1.099345,3.30221 -7.797572,1.939055 -9.065495,5.1802795 -1.253403,3.2041082 5.797147,7.6961858 3.108171,9.84251456 C 15.444331,5.8019644 2.1573031,-5.6701989 -1.5540846,-14.309667 Z"
       id="path3179"
       inkscape:connector-curvature="0"
       sodipodi:nodetypes="ssssssssssssssssssssssssssssss" />
  </g>
</svg>
