<svg width="768" height="225" viewBox="0 0 768 225" fill="none" xmlns="http://www.w3.org/2000/svg">
<path d="M768 -7.62939e-06H0V225H768V-7.62939e-06Z" fill="white"/>
<path d="M236.375 104.651H196.019C194.977 104.651 194.132 105.496 194.132 106.537V126.268C194.132 127.309 194.977 128.156 196.019 128.156H211.761V152.671C211.761 152.671 208.227 153.875 198.453 153.875C186.924 153.875 170.817 149.663 170.817 114.244C170.817 78.8187 187.589 74.1573 203.335 74.1573C216.964 74.1573 222.836 76.5573 226.572 77.7133C227.747 78.072 228.832 76.904 228.832 75.8627L233.335 56.7987C233.335 56.3107 233.169 55.724 232.615 55.3253C231.097 54.2427 221.84 49.0627 198.453 49.0627C171.513 49.0627 143.877 60.5253 143.877 115.625C143.877 170.727 175.517 178.937 202.18 178.937C224.256 178.937 237.648 169.504 237.648 169.504C238.2 169.2 238.26 168.428 238.26 168.075V106.537C238.26 105.496 237.416 104.651 236.375 104.651Z" fill="#0F0E0F"/>
<path d="M444.353 55.665C444.353 54.6156 443.521 53.7676 442.479 53.7676H419.757C418.718 53.7676 417.875 54.6156 417.875 55.665C417.875 55.6703 417.881 99.5783 417.881 99.5783H382.462V55.665C382.462 54.6156 381.626 53.7676 380.586 53.7676H357.865C356.831 53.7676 355.989 54.6156 355.989 55.665V174.569C355.989 175.617 356.831 176.47 357.865 176.47H380.586C381.626 176.47 382.462 175.617 382.462 174.569V123.709H417.881C417.881 123.709 417.819 174.565 417.819 174.569C417.819 175.617 418.661 176.47 419.702 176.47H442.478C443.518 176.47 444.35 175.617 444.353 174.569V55.665Z" fill="#0F0E0F"/>
<path d="M279.254 71.2679C279.254 63.0866 272.694 56.4746 264.6 56.4746C256.515 56.4746 249.951 63.0866 249.951 71.2679C249.951 79.4412 256.515 86.0719 264.6 86.0719C272.694 86.0719 279.254 79.4412 279.254 71.2679Z" fill="#0F0E0F"/>
<path d="M277.629 149.487V94.5999C277.629 93.5585 276.789 92.7066 275.749 92.7066H253.098C252.058 92.7066 251.129 93.7772 251.129 94.8199V173.456C251.129 175.765 252.569 176.453 254.433 176.453H274.841C277.079 176.453 277.629 175.353 277.629 173.419V149.487Z" fill="#0F0E0F"/>
<path d="M530.709 92.8851H508.161C507.127 92.8851 506.285 93.7371 506.285 94.7865V153.088C506.285 153.088 500.556 157.28 492.425 157.28C484.295 157.28 482.137 153.59 482.137 145.629V94.7865C482.137 93.7371 481.297 92.8851 480.263 92.8851H457.377C456.345 92.8851 455.499 93.7371 455.499 94.7865V149.478C455.499 173.125 468.677 178.91 486.807 178.91C501.681 178.91 513.673 170.693 513.673 170.693C513.673 170.693 514.243 175.024 514.503 175.537C514.76 176.049 515.433 176.566 516.161 176.566L530.72 176.502C531.752 176.502 532.599 175.649 532.599 174.604L532.591 94.7865C532.591 93.7371 531.748 92.8851 530.709 92.8851Z" fill="#0F0E0F"/>
<path d="M583.445 157.207C575.624 156.969 570.318 153.421 570.318 153.421V115.766C570.318 115.766 575.552 112.558 581.973 111.985C590.093 111.258 597.917 113.71 597.917 133.081C597.917 153.506 594.386 157.538 583.445 157.207ZM592.338 90.214C579.532 90.214 570.821 95.9287 570.821 95.9287V55.6647C570.821 54.6153 569.981 53.7673 568.946 53.7673H546.158C545.122 53.7673 544.281 54.6153 544.281 55.6647V174.569C544.281 175.618 545.122 176.471 546.161 176.471H561.972C562.684 176.471 563.222 176.103 563.621 175.461C564.014 174.822 564.581 169.979 564.581 169.979C564.581 169.979 573.898 178.809 591.537 178.809C612.246 178.809 624.122 168.305 624.122 131.654C624.122 95.0033 605.154 90.214 592.338 90.214" fill="#0F0E0F"/>
<path d="M342.935 92.6957H325.89C325.89 92.6957 325.865 70.1823 325.865 70.177C325.865 69.325 325.426 68.8983 324.439 68.8983H301.213C300.31 68.8983 299.825 69.297 299.825 70.165V93.4343C299.825 93.4343 288.185 96.2437 287.398 96.4717C286.614 96.6983 286.037 97.421 286.037 98.2837V112.906C286.037 113.957 286.877 114.806 287.915 114.806H299.825V149.985C299.825 176.113 318.153 178.68 330.519 178.68C336.171 178.68 342.931 176.865 344.047 176.453C344.722 176.205 345.115 175.506 345.115 174.749L345.134 158.662C345.134 157.613 344.247 156.764 343.25 156.764C342.257 156.764 339.715 157.168 337.099 157.168C328.727 157.168 325.89 153.276 325.89 148.237C325.89 143.201 325.889 114.806 325.889 114.806H342.935C343.974 114.806 344.817 113.957 344.817 112.906V94.5903C344.817 93.541 343.974 92.6957 342.935 92.6957Z" fill="#0F0E0F"/>
</svg>
