<?xml version="1.0" encoding="UTF-8" standalone="no"?>
<svg
   xmlns:dc="http://purl.org/dc/elements/1.1/"
   xmlns:cc="http://creativecommons.org/ns#"
   xmlns:rdf="http://www.w3.org/1999/02/22-rdf-syntax-ns#"
   xmlns:svg="http://www.w3.org/2000/svg"
   xmlns="http://www.w3.org/2000/svg"
   xmlns:sodipodi="http://sodipodi.sourceforge.net/DTD/sodipodi-0.dtd"
   xmlns:inkscape="http://www.inkscape.org/namespaces/inkscape"
   version="1.1"
   id="Layer_1"
   x="0px"
   y="0px"
   viewBox="0 0 256 256"
   xml:space="preserve"
   width="512"
   height="512"
   class=""
   sodipodi:docname="hackathon.svg"
   inkscape:version="0.92.3 (2405546, 2018-03-11)"><metadata
   id="metadata171"><rdf:RDF><cc:Work
       rdf:about=""><dc:format>image/svg+xml</dc:format><dc:type
         rdf:resource="http://purl.org/dc/dcmitype/StillImage" /><dc:title /></cc:Work></rdf:RDF></metadata><defs
   id="defs169"><style
   id="style2"
   type="text/css">
	.st0{fill:#382B73;}
	.st1{fill:#473080;}
	.st2{fill:#136DA0;}
	.st3{fill:#1CAEE4;}
	.st4{fill:#FFFFFF;}
	.st5{fill:#009ADD;}
	.st6{fill:#E6E7E8;}
	.st7{fill:#E7AD27;}
	.st8{fill:#FEDE3A;}
	.st9{fill:#F7CB15;}
	.st10{fill:#EF5A9D;}
	.st11{fill:#E43D91;}
</style>
	
	

		
	
			
			
			
		
				
				
				
				
				
				
				
				
				
				
				
				
				
			
					
					
					
					
					
					
					
				
						
						
					
							
							
							
						
								
								
								
								
							
									
								
										
									</defs><sodipodi:namedview
   pagecolor="#ffffff"
   bordercolor="#666666"
   borderopacity="1"
   objecttolerance="10"
   gridtolerance="10"
   guidetolerance="10"
   inkscape:pageopacity="0"
   inkscape:pageshadow="2"
   inkscape:window-width="1366"
   inkscape:window-height="704"
   id="namedview167"
   showgrid="false"
   inkscape:pagecheckerboard="true"
   inkscape:zoom="1.3037281"
   inkscape:cx="276.73917"
   inkscape:cy="344.22621"
   inkscape:window-x="0"
   inkscape:window-y="27"
   inkscape:window-maximized="1"
   inkscape:current-layer="Layer_1" /><g
   id="g24"
   style="fill:#ffffff;stroke-width:0.35672656"
   transform="matrix(2.8032675,0,0,2.8032675,-185.87906,-265.16388)">
						<path
   style="fill:#ffffff;stroke-width:1.99999988"
   d="M 30.449219 0.005859375 C 16.673962 0.005859375 5.5058594 11.173962 5.5058594 24.949219 L 5.5058594 487.05664 C 5.5058594 500.8319 16.673962 512 30.449219 512 L 481.55078 512 C 495.32604 512 506.49414 500.8319 506.49414 487.05664 L 506.49414 24.949219 C 506.49414 11.173962 495.32604 0.005859375 481.55078 0.005859375 L 30.449219 0.005859375 z M 49.164062 25.470703 C 50.742302 25.469303 52.245637 25.788926 53.613281 26.367188 C 54.980925 26.945444 56.211688 27.78165 57.246094 28.816406 C 58.280499 29.851162 59.118741 31.08309 59.697266 32.451172 C 60.27579 33.819254 60.595703 35.324104 60.595703 36.902344 C 60.595703 38.480583 60.27579 39.983923 59.697266 41.351562 C 59.118741 42.719207 58.280499 43.951922 57.246094 44.986328 C 56.211688 46.020734 54.980925 46.857023 53.613281 47.435547 C 52.245637 48.014071 50.742302 48.333984 49.164062 48.333984 C 47.585828 48.333984 46.082488 48.014071 44.714844 47.435547 C 43.3472 46.857023 42.114484 46.020734 41.080078 44.986328 C 40.045672 43.951922 39.209384 42.719207 38.630859 41.351562 C 38.052335 39.983923 37.732422 38.480583 37.732422 36.902344 C 37.732422 35.324104 38.052335 33.820769 38.630859 32.453125 C 39.209384 31.085481 40.045672 29.852765 41.080078 28.818359 C 42.114484 27.783954 43.3472 26.947665 44.714844 26.369141 C 46.082488 25.790616 47.585828 25.470703 49.164062 25.470703 z M 92.816406 25.470703 C 94.394646 25.469303 95.897981 25.788926 97.265625 26.367188 C 98.633269 26.945443 99.86402 27.78165 100.89844 28.816406 C 101.93284 29.851162 102.77109 31.08309 103.34961 32.451172 C 103.92813 33.819254 104.24805 35.324104 104.24805 36.902344 C 104.24805 38.480583 103.92813 39.983924 103.34961 41.351562 C 102.77109 42.719207 101.93284 43.951922 100.89844 44.986328 C 99.86402 46.020734 98.633269 46.857023 97.265625 47.435547 C 95.897981 48.014071 94.394646 48.333984 92.816406 48.333984 C 91.238167 48.333984 89.734826 48.014071 88.367188 47.435547 C 86.999543 46.857023 85.766828 46.020734 84.732422 44.986328 C 83.698016 43.951922 82.861727 42.719207 82.283203 41.351562 C 81.704679 39.983924 81.384766 38.480583 81.384766 36.902344 C 81.384766 35.324104 81.704679 33.820769 82.283203 32.453125 C 82.861727 31.085481 83.698016 29.852765 84.732422 28.818359 C 85.766828 27.783954 86.999543 26.947665 88.367188 26.369141 C 89.734826 25.790616 91.238167 25.470703 92.816406 25.470703 z M 136.46875 25.470703 C 138.04699 25.469303 139.55032 25.788926 140.91797 26.367188 C 142.28561 26.945442 143.51833 27.78165 144.55273 28.816406 C 145.58714 29.851162 146.42343 31.08309 147.00195 32.451172 C 147.58048 33.819254 147.90039 35.324104 147.90039 36.902344 C 147.90039 38.480583 147.58048 39.983925 147.00195 41.351562 C 146.42343 42.719207 145.58714 43.951922 144.55273 44.986328 C 143.51833 46.020734 142.28561 46.857023 140.91797 47.435547 C 139.55032 48.014071 138.04699 48.333984 136.46875 48.333984 C 134.89051 48.333984 133.38718 48.014071 132.01953 47.435547 C 130.65189 46.857023 129.41917 46.020734 128.38477 44.986328 C 127.35036 43.951922 126.51407 42.719207 125.93555 41.351562 C 125.35702 39.983925 125.03711 38.480583 125.03711 36.902344 C 125.03711 35.324104 125.35702 33.820769 125.93555 32.453125 C 126.51407 31.085481 127.35036 29.852765 128.38477 28.818359 C 129.41917 27.783954 130.65189 26.947665 132.01953 26.369141 C 133.38718 25.790616 134.89051 25.470703 136.46875 25.470703 z M 385.74609 25.476562 C 387.38235 25.494797 389.01854 25.554269 390.65234 25.654297 C 393.91909 25.854165 397.17381 26.217249 400.4043 26.742188 C 402.69172 27.113426 404.96527 27.565534 407.2207 28.097656 C 410.40684 28.850068 413.55335 29.761362 416.64844 30.828125 C 419.74333 31.894936 422.78294 33.115862 425.75586 34.486328 C 428.72893 35.856024 431.63167 37.373544 434.45312 39.033203 C 437.27375 40.693624 440.00959 42.494049 442.65039 44.427734 C 445.29229 46.361235 447.83583 48.425663 450.27148 50.613281 C 452.70628 52.80111 455.03015 55.109332 457.23438 57.529297 C 459.43943 59.949073 461.52214 62.477622 463.47461 65.105469 C 465.42655 67.732957 467.24588 70.45641 468.92578 73.265625 C 470.6057 76.075005 472.14409 78.966637 473.53516 81.929688 C 474.92602 84.893109 476.16781 87.924242 477.25586 91.011719 C 478.34442 94.099197 479.27787 97.239192 480.05273 100.41992 C 480.82759 103.60007 481.44294 106.81698 481.89648 110.05859 C 482.34962 113.30049 482.64035 116.56303 482.76758 119.83398 C 482.89476 123.10524 482.85828 126.38082 482.6582 129.64844 C 482.4584 132.91584 482.09531 136.17121 481.57031 139.40234 C 481.19842 141.68978 480.74567 143.96335 480.21289 146.21875 C 479.46106 149.40419 478.55039 152.55004 477.48438 155.64453 C 476.41757 158.73942 475.19664 161.77903 473.82617 164.75195 C 472.45584 167.72506 470.93766 170.62778 469.27734 173.44922 C 467.61761 176.27047 465.81784 179.00696 463.88477 181.64844 C 461.95122 184.28967 459.88679 186.83256 457.69922 189.26758 C 455.51144 191.70304 453.20321 194.02756 450.7832 196.23242 C 448.36338 198.43684 445.83483 200.51887 443.20703 202.4707 C 440.57954 204.42264 437.85606 206.24197 435.04688 207.92188 C 432.23686 209.60183 429.34458 211.14024 426.38086 212.53125 C 423.41811 213.92272 420.38763 215.16515 417.30078 216.25391 C 414.21327 217.34181 411.07328 218.27461 407.89258 219.04883 C 404.71243 219.82369 401.49552 220.43904 398.25391 220.89258 C 395.01136 221.34578 391.74816 221.63651 388.47656 221.76367 C 385.20598 221.89144 381.93106 221.85557 378.66406 221.65625 C 375.39666 221.45645 372.14129 221.09336 368.91016 220.56836 C 366.62272 220.19647 364.34915 219.74372 362.09375 219.21094 C 358.90827 218.45847 355.76242 217.54717 352.66797 216.48047 C 349.57311 215.4143 346.53351 214.19402 343.56055 212.82422 C 340.58744 211.45389 337.68472 209.93571 334.86328 208.27539 C 332.04198 206.61503 329.30549 204.8146 326.66406 202.88086 C 324.02283 200.94731 321.47994 198.88288 319.04492 196.69531 C 316.60946 194.50753 314.28494 192.19931 312.08008 189.7793 C 309.87571 187.36011 307.79369 184.83222 305.8418 182.20508 C 303.88914 179.577 302.06915 176.85289 300.38867 174.04297 C 298.70875 171.23359 297.17037 168.34196 295.7793 165.37891 C 294.38844 162.41549 293.14665 159.38433 292.05859 156.29688 C 290.9701 153.21004 290.03664 150.0707 289.26172 146.89062 C 288.48745 143.70982 287.87275 140.49224 287.41992 137.25 C 286.96613 134.00813 286.67472 130.74559 286.54688 127.47461 C 286.41969 124.20335 286.45618 120.92777 286.65625 117.66016 C 286.85605 114.39275 287.21914 111.13738 287.74414 107.90625 C 288.11607 105.61946 288.56883 103.34656 289.10156 101.0918 C 289.85397 97.905656 290.76527 94.759155 291.83203 91.664062 C 292.8982 88.569208 294.11848 85.529602 295.48828 82.556641 C 296.85861 79.58353 298.37679 76.680816 300.03711 73.859375 C 301.69747 71.03808 303.4979 68.301589 305.43164 65.660156 C 307.36519 63.018921 309.42962 60.476032 311.61719 58.041016 C 313.80434 55.605599 316.1119 53.281081 318.53125 51.076172 C 320.95107 48.871753 323.47962 46.789726 326.10742 44.837891 C 328.73554 42.885896 331.45965 41.066566 334.26953 39.386719 C 337.07891 37.706797 339.97054 36.168417 342.93359 34.777344 C 345.89698 33.38582 348.92814 32.143379 352.01562 31.054688 C 355.1025 29.966852 358.24184 29.034046 361.42188 28.259766 C 364.60264 27.48484 367.82023 26.869488 371.0625 26.416016 C 374.30441 25.962879 377.56694 25.672151 380.83789 25.544922 C 382.47352 25.481329 384.10984 25.45833 385.74609 25.476562 z M 259.47656 252.98633 C 262.69738 252.98633 265.91813 254.21679 268.37891 256.67578 L 322.05469 310.35156 C 324.41531 312.71218 325.73828 315.91294 325.73828 319.25 C 325.73828 322.58708 324.41142 325.78782 322.05078 328.14844 L 268.375 381.82422 C 265.9178 384.28856 262.69916 385.51953 259.47656 385.51953 C 256.25752 385.51953 253.03498 384.29279 250.57422 381.83203 C 245.65982 376.91763 245.65974 368.94726 250.57812 364.0293 L 295.35547 319.25391 L 250.57422 274.47656 C 245.65982 269.56216 245.65982 261.59374 250.57422 256.67578 C 253.03499 254.21679 256.25574 252.98633 259.47656 252.98633 z M 129.80273 252.99414 C 133.02311 252.99414 136.24219 254.22266 138.70117 256.68164 C 143.61556 261.59603 143.61556 269.56641 138.70117 274.48438 L 93.921875 319.25977 L 138.69727 364.03711 C 143.61523 368.9515 143.61556 376.91992 138.70117 381.83789 C 136.24755 384.28793 133.02568 385.51953 129.80664 385.51953 C 126.58761 385.51953 123.3654 384.2928 120.9082 381.83203 L 67.228516 328.15625 C 64.86789 325.79562 63.541016 322.59488 63.541016 319.25781 C 63.541016 315.92075 64.867561 312.71805 67.224609 310.35742 L 120.90039 256.68164 C 123.36116 254.22266 126.58236 252.99414 129.80273 252.99414 z M 221.57812 252.99609 C 223.60704 252.93992 225.67823 253.37495 227.61523 254.35742 C 233.81366 257.50492 236.28031 265.08087 233.13281 271.2793 L 178.5957 378.63086 C 176.37457 383.00159 171.95024 385.51953 167.36133 385.51953 C 165.44064 385.51953 163.49956 385.07871 161.67188 384.15234 C 155.47345 381.00484 153.00484 373.4289 156.15234 367.23047 L 210.68945 259.88086 C 212.85582 255.61944 217.11452 253.11968 221.57812 252.99609 z "
   transform="matrix(0.17836328,0,0,0.17836328,66.308,94.591001)"
   id="path22" />
					</g><g
   id="g32"
   style="fill:#000000;stroke-width:0.35672656"
   transform="matrix(2.8032675,0,0,2.8032675,-185.87906,-265.16388)">
						
					</g><g
   id="g36"
   style="fill:#000000;stroke-width:0.35672656"
   transform="matrix(2.8032675,0,0,2.8032675,-185.87906,-265.16388)">
						
					</g><g
   id="g40"
   style="fill:#000000;stroke-width:0.35672656"
   transform="matrix(2.8032675,0,0,2.8032675,-185.87906,-265.16388)">
						
					</g><g
   style="fill:#000000;stroke-width:0.55917388"
   id="g68"
   transform="matrix(1.7883525,0,0,1.7883525,-102.91941,-98.289457)">
									<g
   style="fill:#000000;stroke-width:0.55917388"
   id="g66">
										
									</g>
								</g><g
   style="fill:#000000;stroke-width:0.55917388"
   id="g82"
   transform="matrix(1.7883525,0,0,1.7883525,-102.91941,-98.289457)">
									
								</g><g
   id="g90"
   style="fill:#000000;stroke-width:0.55917388"
   transform="matrix(1.7883525,0,0,1.7883525,-102.91941,-98.289457)">
								<g
   id="g88"
   style="fill:#000000;stroke-width:0.55917388">
									
								</g>
							</g><g
   id="g116"
   style="fill:#000000;stroke-width:0.55917388"
   transform="matrix(1.7883525,0,0,1.7883525,-102.91941,-98.289457)">
					
						
				</g><g
   id="g122"
   style="fill:#ffffff;stroke-width:0.55917388"
   transform="matrix(1.7883525,0,0,1.7883525,-102.91941,-98.289457)">
					<g
   id="g120"
   style="fill:#ffffff;stroke-width:0.55917388">
						<path
   style="fill:#ffffff;stroke-width:2"
   d="M 397.56445 106.2793 C 398.40396 106.90623 399.24298 107.53595 399.98242 108.27539 C 400.96367 109.25664 401.85131 110.3305 402.63086 111.48438 C 403.41041 112.63825 404.08209 113.8725 404.63086 115.16992 C 405.17963 116.46734 405.60561 117.82834 405.89453 119.24023 C 406.18345 120.65213 406.33594 122.11403 406.33594 123.61133 C 406.33594 125.10863 406.18345 126.57052 405.89453 127.98242 C 405.87012 128.10173 405.81347 128.20759 405.78711 128.32617 L 438.5625 116.18555 C 444.65363 113.92507 447.76081 107.15753 445.50391 101.06641 C 443.24701 94.975274 436.47265 91.874923 430.38867 94.121094 L 397.56445 106.2793 z "
   id="path952"
   transform="matrix(0.27958694,0,0,0.27958694,57.549845,54.960897)" /><path
   style="fill:#ffffff;stroke-width:2"
   d="M 384.64648 36.142578 C 378.15119 36.142578 372.88281 41.407377 372.88281 47.90625 L 372.88281 105.42969 C 373.93685 104.74633 375.03556 104.12163 376.20508 103.62695 C 377.5025 103.07818 378.86349 102.6522 380.27539 102.36328 C 381.68729 102.07436 383.14919 101.92188 384.64648 101.92188 C 386.14378 101.92188 387.60568 102.07436 389.01758 102.36328 C 390.42948 102.6522 391.79242 103.07818 393.08984 103.62695 C 394.25931 104.1216 395.35616 104.74637 396.41016 105.42969 L 396.41016 47.90625 C 396.41016 41.407377 391.14178 36.142578 384.64648 36.142578 z "
   id="path118"
   transform="matrix(0.27958694,0,0,0.27958694,57.549845,54.960897)" />
					</g>
				</g><g
   id="g142"
   style="fill:#ffffff;stroke-width:0.55917388"
   transform="matrix(1.7883525,0,0,1.7883525,-102.91941,-98.289457)">
					<g
   id="g140"
   style="fill:#ffffff;stroke-width:0.55917388">
						
					</g>
				</g><g
   id="g150"
   style="fill:#000000;stroke-width:0.55917388"
   transform="matrix(1.7883525,0,0,1.7883525,-102.91941,-98.289457)">
					
				</g><g
   id="g154"
   style="fill:#ffffff;stroke-width:0.55917388"
   transform="matrix(1.7883525,0,0,1.7883525,-102.91941,-98.289457)">
					
				</g> </svg>