<?xml version="1.0" encoding="UTF-8" standalone="no"?>
<!-- Created with Inkscape (http://www.inkscape.org/) -->

<svg
   xmlns:dc="http://purl.org/dc/elements/1.1/"
   xmlns:cc="http://creativecommons.org/ns#"
   xmlns:rdf="http://www.w3.org/1999/02/22-rdf-syntax-ns#"
   xmlns:svg="http://www.w3.org/2000/svg"
   xmlns="http://www.w3.org/2000/svg"
   xmlns:sodipodi="http://sodipodi.sourceforge.net/DTD/sodipodi-0.dtd"
   xmlns:inkscape="http://www.inkscape.org/namespaces/inkscape"
   width="260"
   height="89.599998"
   viewBox="0 0 68.791665 23.706667"
   version="1.1"
   id="svg827"
   inkscape:version="0.92.3 (2405546, 2018-03-11)"
   sodipodi:docname="hackclub.svg">
  <defs
     id="defs821" />
  <sodipodi:namedview
     id="base"
     pagecolor="#ffffff"
     bordercolor="#666666"
     borderopacity="1.0"
     inkscape:pageopacity="0.0"
     inkscape:pageshadow="2"
     inkscape:zoom="2.8"
     inkscape:cx="137.0928"
     inkscape:cy="63.154504"
     inkscape:document-units="px"
     inkscape:current-layer="layer1"
     showgrid="false"
     units="px"
     inkscape:window-width="1366"
     inkscape:window-height="704"
     inkscape:window-x="0"
     inkscape:window-y="27"
     inkscape:window-maximized="1" />
  <metadata
     id="metadata824">
    <rdf:RDF>
      <cc:Work
         rdf:about="">
        <dc:format>image/svg+xml</dc:format>
        <dc:type
           rdf:resource="http://purl.org/dc/dcmitype/StillImage" />
        <dc:title></dc:title>
      </cc:Work>
    </rdf:RDF>
  </metadata>
  <g
     inkscape:label="Layer 1"
     inkscape:groupmode="layer"
     id="layer1"
     transform="translate(0,-273.29332)">
    <rect
       style="opacity:1;vector-effect:none;fill:#e42d40;fill-opacity:1;stroke:none;stroke-width:22.22500038;stroke-linecap:round;stroke-linejoin:round;stroke-miterlimit:4;stroke-dasharray:none;stroke-dashoffset:0;stroke-opacity:1"
       id="rect1372"
       width="68.791664"
       height="23.706667"
       x="1.3895933e-06"
       y="273.2933" />
    <path
       inkscape:connector-curvature="0"
       id="text3025-8-56"
       class="st1"
       d="m 14.181667,280.41061 -2.090209,0.37042 v 0.39687 1.85209 1.53458 H 9.1281243 c 0,-0.60854 0,-1.27 0,-1.87854 v -2.24896 l -2.090208,0.37042 v 0.37041 1.87854 6.72042 h 2.090208 v -3.67771 h 2.9633337 v 3.67771 h 2.090209 v -7.11729 -1.48167 z m 15.689792,0.15875 -2.010834,0.34396 v 8.86354 h 2.010834 v -2.72521 c 0,0 0,0 0,0 1.693333,2.75167 0.02646,0.0529 1.666875,2.72521 h 2.037291 l -2.06375,-3.175 1.931459,-3.20146 h -1.957917 l -1.613958,2.64584 v -1.16417 z m 16.959791,0 -2.010833,0.34396 v 7.3025 c 0,0.89958 0.502708,1.61396 1.666875,1.61396 0.740833,0 1.402292,-0.21167 1.640417,-0.3175 l -0.185209,-1.27 c -0.185208,0.0265 -0.449791,0.0794 -0.608541,0.0794 -0.370417,0 -0.502709,-0.13229 -0.502709,-0.55562 z m 11.218334,0 -2.010833,0.34396 v 8.5725 c 0.132291,0.0529 1.481666,0.37042 2.54,0.37042 1.905,0 3.175,-1.42875 3.175,-3.36021 0,-1.905 -0.79375,-3.175 -2.38125,-3.175 -0.582084,0 -1.005417,0.23812 -1.322917,0.635 z m -16.51,0.47625 c -2.592917,0 -3.836459,1.905 -3.836459,4.52438 0,2.7252 1.164167,4.25979 3.757084,4.25979 1.031875,0 1.852083,-0.18521 2.354791,-0.42334 l -0.47625,-1.42875 c -0.47625,0.18521 -1.058333,0.34396 -1.640416,0.34396 -1.349375,0 -1.74625,-1.19062 -1.74625,-2.93687 0,-1.79917 0.47625,-2.88396 1.561041,-2.88396 0.449792,0 0.873125,0.15875 1.349375,0.74083 l 1.137709,-1.16416 c -0.47625,-0.50271 -1.11125,-1.03188 -2.460625,-1.03188 z m -16.324792,2.2225 c -1.772708,0 -3.095625,1.19063 -3.095625,3.4925 0,1.87854 0.873125,3.12208 2.936875,3.12208 1.137708,0 1.878542,-0.42333 1.905,-0.42333 l -0.370417,-1.34937 c -0.02646,0 -0.661458,0.26458 -1.058333,0.26458 -0.555625,0 -1.27,-0.23813 -1.27,-1.82563 0,-1.61395 0.661458,-1.7727 1.084792,-1.7727 0.343958,0 0.529166,0.1852 0.740833,0.42333 l 0.978958,-1.03188 C 26.67,283.63853 26.061459,283.26811 25.214792,283.26811 Z m -6.799792,0.0265 c -1.905,0 -3.201458,1.42875 -3.201458,3.38667 0,1.905 0.79375,3.14854 2.434167,3.14854 0.926041,0 1.455208,-0.44979 1.74625,-1.24354 0.15875,0.84666 0.608541,1.27 0.608541,1.27 l 1.613959,-0.50271 c 0,0 -0.714375,-0.635 -0.714375,-2.64584 v -3.0427 c 0,0.0264 -1.42875,-0.37042 -2.487084,-0.37042 z m 30.48,0.10583 v 4.23334 c 0,1.34937 0.502709,2.19604 1.825625,2.19604 0.899584,0 1.719792,-0.34396 2.169584,-1.13771 0.185208,0.76729 0.582083,1.16417 0.582083,1.16417 l 1.613958,-0.50271 c 0,0 -0.714375,-0.635 -0.714375,-2.64584 v -3.30729 h -2.010833 v 3.175 c 0,1.11125 -0.502708,1.79917 -0.978958,1.79917 -0.396875,0 -0.502709,-0.39688 -0.502709,-1.00542 v -3.96875 z m -30.48,1.37584 c 0.15875,0 0.396875,0.0529 0.529167,0.10583 v 1.48167 c 0,1.05833 -0.423333,2.01083 -0.926042,2.01083 -0.608541,0 -0.635,-0.87313 -0.635,-1.82563 -0.02646,-1.03187 0.211667,-1.7727 1.031875,-1.7727 z m 40.560626,0 c 0.608541,0 0.635,0.87312 0.635,1.82562 0,1.00542 -0.211667,1.77271 -1.058334,1.77271 -0.15875,0 -0.423333,-0.0529 -0.529166,-0.0794 v -1.34937 c 0.02646,-1.13771 0.396875,-2.16958 0.9525,-2.16958 z"
       style="stroke-width:0.26458332;fill:#ffffff" />
  </g>
</svg>
