<?xml version="1.0" encoding="UTF-8" standalone="no"?>
<svg
   xmlns:dc="http://purl.org/dc/elements/1.1/"
   xmlns:cc="http://creativecommons.org/ns#"
   xmlns:rdf="http://www.w3.org/1999/02/22-rdf-syntax-ns#"
   xmlns:svg="http://www.w3.org/2000/svg"
   xmlns="http://www.w3.org/2000/svg"
   xmlns:sodipodi="http://sodipodi.sourceforge.net/DTD/sodipodi-0.dtd"
   xmlns:inkscape="http://www.inkscape.org/namespaces/inkscape"
   viewBox="0 0 343 146"
   version="1.1"
   id="svg63"
   sodipodi:docname="mlh.svg"
   inkscape:version="0.92.3 (2405546, 2018-03-11)">
  <metadata
     id="metadata69">
    <rdf:RDF>
      <cc:Work
         rdf:about="">
        <dc:format>image/svg+xml</dc:format>
        <dc:type
           rdf:resource="http://purl.org/dc/dcmitype/StillImage" />
      </cc:Work>
    </rdf:RDF>
  </metadata>
  <defs
     id="defs67" />
  <sodipodi:namedview
     pagecolor="#ffffff"
     bordercolor="#666666"
     borderopacity="1"
     objecttolerance="10"
     gridtolerance="10"
     guidetolerance="10"
     inkscape:pageopacity="0"
     inkscape:pageshadow="2"
     inkscape:window-width="1366"
     inkscape:window-height="704"
     id="namedview65"
     showgrid="false"
     inkscape:zoom="1.0233236"
     inkscape:cx="171.5"
     inkscape:cy="73"
     inkscape:window-x="0"
     inkscape:window-y="27"
     inkscape:window-maximized="1"
     inkscape:current-layer="svg63" />
  <g
     class="svg_mlh_lower_text"
     transform="translate(1,126)"
     id="g38"
     style="fill:#ffffff;fill-rule:evenodd;stroke:none;stroke-width:1">
    <path
       d="m 17.1,1.2 c 0.4,0.2 0.7,0.4 1,0.6 0.3,0.3 0.5,0.6 0.6,1 0.1,0.4 0.2,0.8 0.2,1.2 v 14.6 c 0,0.1 0,0.3 -0.1,0.3 C 18.7,19 18.6,19 18.5,19 h -3.6 c -0.1,0 -0.2,0 -0.3,-0.1 -0.1,-0.1 -0.1,-0.2 -0.1,-0.3 V 5.4 h -2.9 v 13.2 c 0,0.1 0,0.3 -0.1,0.3 C 11.4,19 11.3,19 11.2,19 H 7.9 C 7.8,19 7.6,19 7.6,18.9 7.5,18.8 7.5,18.7 7.5,18.6 V 5.4 H 4.6 v 13.2 c 0,0.3 -0.2,0.5 -0.5,0.5 H 0.5 C 0.2,19.1 0,18.9 0,18.6 V 1.5 C 0,1.2 0.2,1 0.5,1 h 15.6 c 0.3,-0.1 0.7,0 1,0.2 z"
       id="path2"
       inkscape:connector-curvature="0"
       style="fill:#ffffff" />
    <path
       d="m 35.2,0.9 c 0.4,0 0.8,0.1 1.2,0.2 0.4,0.2 0.7,0.4 1,0.6 0.3,0.3 0.5,0.6 0.6,1 0.1,0.4 0.2,0.8 0.2,1.2 v 14.6 c 0,0.1 0,0.3 -0.1,0.3 -0.1,0.1 -0.2,0.1 -0.3,0.1 h -3.6 c -0.1,0 -0.3,0 -0.3,-0.1 -0.1,-0.1 -0.1,-0.2 -0.1,-0.3 v -4.6 c 0,-0.1 0,-0.3 -0.1,-0.3 -0.1,-0.1 -0.2,-0.1 -0.3,-0.1 h -5.1 c -0.1,0 -0.3,0 -0.3,0.1 -0.1,0.1 -0.1,0.2 -0.1,0.3 v 4.6 c 0,0.3 -0.2,0.5 -0.5,0.5 h -3.6 c -0.3,0 -0.5,-0.2 -0.5,-0.5 V 3.9 c 0,-0.4 0.1,-0.8 0.2,-1.2 0.2,-0.4 0.4,-0.7 0.6,-1 0.3,-0.3 0.6,-0.5 1,-0.6 0.4,-0.2 0.8,-0.2 1.2,-0.2 z M 33.6,9.5 V 5 h -6.1 v 4.5 z"
       id="path4"
       inkscape:connector-curvature="0"
       style="fill:#ffffff" />
    <path
       d="m 54.5,1.1 c 0.1,0.1 0.1,0.2 0.1,0.3 V 16 c 0,0.4 -0.1,0.8 -0.2,1.2 -0.2,0.4 -0.4,0.7 -0.6,1 -0.3,0.3 -0.6,0.5 -1,0.6 C 52.4,19 52,19 51.6,19 H 43.8 C 43.4,19 43,18.9 42.6,18.8 42.2,18.6 41.9,18.4 41.6,18.2 41.3,17.9 41.1,17.6 41,17.2 40.8,16.8 40.8,16.4 40.8,16 V 10.5 C 40.8,10.2 41,10 41.3,10 h 3.6 c 0.3,0 0.5,0.2 0.5,0.5 v 3.7 c 0,0.1 0,0.2 0.1,0.3 0.1,0.1 0.2,0.1 0.3,0.1 h 3.7 c 0.1,0 0.3,0 0.3,-0.1 0.1,-0.1 0.1,-0.2 0.1,-0.3 V 1.5 c 0,-0.1 0,-0.3 0.1,-0.3 0.1,-0.1 0.2,-0.1 0.3,-0.1 h 3.6 c 0.3,-0.2 0.5,-0.1 0.6,0 z"
       id="path6"
       inkscape:connector-curvature="0"
       style="fill:#ffffff" />
    <path
       d="m 70.8,0.9 c 0.4,0 0.8,0.1 1.2,0.2 0.4,0.2 0.7,0.4 1,0.6 0.3,0.3 0.5,0.6 0.6,1 0.1,0.4 0.2,0.8 0.2,1.2 v 12 c 0,0.4 -0.1,0.8 -0.2,1.2 -0.2,0.4 -0.4,0.7 -0.6,1 -0.3,0.3 -0.6,0.5 -1,0.6 -0.4,0.2 -0.8,0.2 -1.2,0.2 h -9.1 c -0.4,0 -0.8,-0.1 -1.2,-0.2 -0.4,-0.2 -0.7,-0.4 -1,-0.6 -0.3,-0.3 -0.5,-0.6 -0.6,-1 -0.2,-0.4 -0.2,-0.8 -0.2,-1.2 v -12 c 0,-0.4 0.1,-0.8 0.2,-1.2 0.1,-0.4 0.4,-0.7 0.6,-1 0.3,-0.3 0.6,-0.5 1,-0.6 0.4,-0.2 0.8,-0.2 1.2,-0.2 z m -1.6,4.4 h -6.1 v 9.3 h 6.1 z"
       id="path8"
       inkscape:connector-curvature="0"
       style="fill:#ffffff" />
    <path
       d="m 93.6,18.6 c 0.1,0.1 0.1,0.2 0,0.3 C 93.5,19 93.5,19 93.3,19 h -4.1 c -0.1,0 -0.3,0 -0.4,-0.1 l -0.3,-0.3 -2.7,-4.9 c 0,-0.1 -0.1,-0.1 -0.2,-0.1 h -3.1 c -0.1,0 -0.1,0 -0.1,0.1 v 4.8 c 0,0.3 -0.2,0.5 -0.5,0.5 H 78.3 C 78,19 77.8,18.8 77.8,18.5 V 1.4 C 77.8,1.1 78,0.9 78.3,0.9 H 90 c 0.4,0 0.8,0.1 1.2,0.2 0.4,0.2 0.7,0.4 1,0.6 0.3,0.3 0.5,0.6 0.6,1 C 93,3.1 93,3.5 93,3.9 v 6.8 c 0,0.7 -0.2,1.2 -0.6,1.8 -0.4,0.5 -0.9,0.9 -1.5,1.1 h -0.1 c -0.1,0 -0.1,0.1 -0.1,0.2 v 0.1 z M 88.5,5.1 h -6.2 v 4.4 h 6.2 z"
       id="path10"
       inkscape:connector-curvature="0"
       style="fill:#ffffff" />
    <path
       d="m 117.9,14.6 c 0.1,0 0.2,0 0.3,0.1 0.1,0.1 0.1,0.2 0.1,0.3 v 3.4 c 0,0.1 0,0.3 -0.1,0.3 -0.1,0.1 -0.2,0.1 -0.3,0.1 h -11.1 c -0.3,0 -0.5,-0.2 -0.5,-0.5 V 1.2 c 0,-0.3 0.2,-0.5 0.5,-0.5 h 3.6 c 0.3,0 0.5,0.2 0.5,0.5 v 12.7 c 0,0.1 0,0.2 0.1,0.3 0.1,0.1 0.2,0.1 0.3,0.1 h 6.6 z"
       id="path12"
       inkscape:connector-curvature="0"
       style="fill:#ffffff" />
    <path
       d="m 134.6,1.1 c 0.1,0.1 0.1,0.2 0.1,0.3 v 1.5 0.8 1 c 0,0.1 0,0.2 -0.1,0.3 -0.1,0.1 -0.2,0.1 -0.3,0.1 h -1.8 -5.4 -1.4 c -0.1,0 -0.1,0 -0.1,0.1 V 8 c 0,0.1 0,0.1 0.1,0.1 h 7.4 c 0.1,0 0.2,0 0.3,0.1 0.1,0.1 0.1,0.2 0.1,0.3 v 2.6 c 0,0.1 0,0.3 -0.1,0.3 -0.1,0.1 -0.2,0.1 -0.3,0.1 h -7.4 c -0.1,0 -0.1,0 -0.1,0.1 v 1.3 0 1.5 c 0,0.1 0,0.1 0.1,0.1 h 1.1 5.8 1.7 c 0.1,0 0.3,0 0.3,0.1 0.1,0.1 0.1,0.2 0.1,0.3 v 1 1.3 0.9 c 0,0.1 0,0.3 -0.1,0.3 -0.1,0.1 -0.2,0.1 -0.3,0.1 h -1.5 -9.8 -1.5 C 121.2,18.5 121,18.3 121,18 V 17.1 2.1 0.9 c 0,-0.1 0,-0.3 0.1,-0.3 0.1,-0.1 0.2,-0.1 0.3,-0.1 h 1.9 10.1 0.8 c 0.2,0.4 0.3,0.5 0.4,0.6 z"
       id="path14"
       inkscape:connector-curvature="0"
       style="fill:#ffffff" />
    <path
       d="m 151,0.9 c 0.4,0 0.8,0.1 1.2,0.2 0.4,0.2 0.7,0.4 1,0.6 0.3,0.3 0.5,0.6 0.6,1 0.1,0.4 0.2,0.8 0.2,1.2 v 14.6 c 0,0.1 0,0.3 -0.1,0.3 -0.1,0.1 -0.2,0.1 -0.3,0.1 h -3.7 c -0.1,0 -0.3,0 -0.3,-0.1 -0.1,-0.1 -0.1,-0.2 -0.1,-0.3 v -4.6 c 0,-0.1 0,-0.3 -0.1,-0.3 -0.1,-0.1 -0.2,-0.1 -0.3,-0.1 h -5.2 c -0.1,0 -0.3,0 -0.3,0.1 -0.1,0.1 -0.1,0.2 -0.1,0.3 v 4.6 c 0,0.3 -0.2,0.5 -0.5,0.5 h -3.6 c -0.3,0 -0.5,-0.2 -0.5,-0.5 V 3.9 c 0,-0.4 0.1,-0.8 0.2,-1.2 0.2,-0.4 0.4,-0.7 0.6,-1 0.3,-0.3 0.6,-0.5 1,-0.6 0.4,-0.2 0.8,-0.2 1.2,-0.2 z m -1.6,8.6 V 5 h -6.1 v 4.5 z"
       id="path16"
       inkscape:connector-curvature="0"
       style="fill:#ffffff" />
    <path
       d="m 173.1,9.3 c 0.1,0.1 0.1,0.2 0.1,0.3 V 16 c 0,0.4 -0.1,0.8 -0.2,1.2 -0.2,0.4 -0.4,0.7 -0.6,1 -0.3,0.3 -0.6,0.5 -1,0.6 -0.4,0.2 -0.8,0.2 -1.2,0.2 h -9.1 c -0.4,0 -0.8,-0.1 -1.2,-0.2 -0.4,-0.2 -0.7,-0.4 -1,-0.6 -0.3,-0.3 -0.5,-0.6 -0.6,-1 -0.2,-0.4 -0.2,-0.8 -0.2,-1.2 V 4 c 0,-0.4 0.1,-0.8 0.2,-1.2 0.1,-0.4 0.4,-0.7 0.6,-1 0.3,-0.3 0.6,-0.5 1,-0.6 C 160.3,1 160.7,1 161.1,1 h 10.7 c 0.1,0 0.3,0 0.3,0.1 0.1,0.1 0.1,0.2 0.1,0.3 v 3.4 c 0,0.1 0,0.3 -0.1,0.3 -0.1,0.1 -0.2,0.1 -0.3,0.1 h -8.6 c -0.1,0 -0.3,0 -0.3,0.1 -0.1,0.1 -0.1,0.2 -0.1,0.3 V 14 c 0,0.1 0,0.2 0.1,0.3 0.1,0.1 0.2,0.1 0.3,0.1 h 5.1 c 0.1,0 0.2,0 0.3,-0.1 0.1,-0.1 0.1,-0.2 0.1,-0.3 V 9.5 c 0,-0.1 0,-0.3 0.1,-0.3 0.1,-0.1 0.2,-0.1 0.3,-0.1 h 3.6 c 0.1,0 0.3,0.1 0.4,0.2 z"
       id="path18"
       inkscape:connector-curvature="0"
       style="fill:#ffffff" />
    <path
       d="m 192.1,1.1 c 0.1,0.1 0.1,0.2 0.1,0.3 V 16 c 0,0.4 -0.1,0.8 -0.2,1.2 -0.2,0.4 -0.4,0.7 -0.6,1 -0.3,0.3 -0.6,0.5 -1,0.6 -0.4,0.2 -0.8,0.2 -1.2,0.2 h -9.1 c -0.4,0 -0.8,-0.1 -1.2,-0.2 -0.4,-0.2 -0.7,-0.4 -1,-0.6 -0.3,-0.3 -0.5,-0.6 -0.6,-1 -0.2,-0.4 -0.2,-0.8 -0.2,-1.2 V 1.4 c 0,-0.3 0.2,-0.5 0.5,-0.5 h 3.6 c 0.3,0 0.5,0.2 0.5,0.5 v 12.7 c 0,0.1 0,0.2 0.1,0.3 0.1,0.1 0.2,0.1 0.3,0.1 h 5.1 c 0.1,0 0.2,0 0.3,-0.1 0.1,-0.1 0.1,-0.2 0.1,-0.3 V 1.4 c 0,-0.1 0,-0.3 0.1,-0.3 C 187.8,1 187.9,1 188,1 h 3.6 c 0.3,-0.1 0.4,0 0.5,0.1 z"
       id="path20"
       inkscape:connector-curvature="0"
       style="fill:#ffffff" />
    <path
       d="m 210,1.1 c 0.1,0.1 0.1,0.2 0.1,0.3 v 1.5 0.8 1 c 0,0.1 0,0.2 -0.1,0.3 -0.1,0.1 -0.2,0.1 -0.3,0.1 h -1.8 -5.4 -1.4 c -0.1,0 -0.1,0 -0.1,0.1 V 8 c 0,0.1 0,0.1 0.1,0.1 h 7.4 c 0.1,0 0.2,0 0.3,0.1 0.1,0.1 0.1,0.2 0.1,0.3 v 2.6 c 0,0.1 0,0.3 -0.1,0.3 -0.1,0.1 -0.2,0.1 -0.3,0.1 h -7.4 c -0.1,0 -0.1,0 -0.1,0.1 v 1.3 0 1.5 c 0,0.1 0,0.1 0.1,0.1 h 1.1 5.8 1.7 c 0.1,0 0.3,0 0.3,0.1 0.1,0.1 0.1,0.2 0.1,0.3 v 1 1.3 0.9 c 0,0.1 0,0.3 -0.1,0.3 -0.1,0.1 -0.2,0.1 -0.3,0.1 h -1.5 -9.8 -1.5 c -0.3,0 -0.5,-0.2 -0.5,-0.5 V 17.1 2.1 0.9 c 0,-0.1 0,-0.3 0.1,-0.3 0.1,-0.1 0.2,-0.1 0.3,-0.1 h 1.9 10.1 0.8 c 0.2,0.4 0.3,0.5 0.4,0.6 z"
       id="path22"
       inkscape:connector-curvature="0"
       style="fill:#ffffff" />
    <path
       d="m 237.7,0.9 c 0.1,0 0.3,0 0.3,0.1 0.1,0.1 0.1,0.2 0.1,0.3 v 17.1 c 0,0.1 0,0.3 -0.1,0.3 -0.1,0.1 -0.2,0.1 -0.3,0.1 h -3.6 c -0.1,0 -0.3,0 -0.3,-0.1 -0.1,-0.1 -0.1,-0.2 -0.1,-0.3 v -6 c 0,-0.1 0,-0.2 -0.1,-0.3 C 233.5,12 233.4,12 233.3,12 h -5.1 c -0.1,0 -0.3,0 -0.3,0.1 -0.1,0.1 -0.1,0.2 -0.1,0.3 v 6 c 0,0.3 -0.2,0.5 -0.5,0.5 h -3.6 c -0.3,0 -0.5,-0.2 -0.5,-0.5 V 1.3 c 0,-0.3 0.2,-0.5 0.5,-0.5 h 3.6 c 0.3,0 0.5,0.2 0.5,0.5 v 5.8 c 0,0.3 0.2,0.5 0.5,0.5 h 5.1 c 0.1,0 0.2,0 0.3,-0.1 0.1,-0.1 0.1,-0.2 0.1,-0.3 V 1.4 c 0,-0.1 0,-0.3 0.1,-0.3 C 234,1 234.1,1 234.2,1 h 3.5 z"
       id="path24"
       inkscape:connector-curvature="0"
       style="fill:#ffffff" />
    <path
       d="m 254.4,0.9 c 0.4,0 0.8,0.1 1.2,0.2 0.4,0.2 0.7,0.4 1,0.6 0.3,0.3 0.5,0.6 0.6,1 0.1,0.4 0.2,0.8 0.2,1.2 v 14.6 c 0,0.1 0,0.3 -0.1,0.3 -0.1,0.1 -0.2,0.1 -0.3,0.1 h -3.6 c -0.1,0 -0.3,0 -0.3,-0.1 C 253,18.7 253,18.6 253,18.5 v -4.6 c 0,-0.1 0,-0.3 -0.1,-0.3 -0.1,-0.1 -0.2,-0.1 -0.3,-0.1 h -5.1 c -0.1,0 -0.3,0 -0.3,0.1 -0.1,0.1 -0.1,0.2 -0.1,0.3 v 4.6 c 0,0.3 -0.2,0.5 -0.5,0.5 H 243 c -0.3,0 -0.5,-0.2 -0.5,-0.5 V 3.9 c 0,-0.4 0.1,-0.8 0.2,-1.2 0.2,-0.4 0.4,-0.7 0.6,-1 0.3,-0.3 0.6,-0.5 1,-0.6 0.4,-0.2 0.8,-0.2 1.2,-0.2 z m -1.5,8.6 V 5 h -6.1 v 4.5 z"
       id="path26"
       inkscape:connector-curvature="0"
       style="fill:#ffffff" />
    <path
       d="M 266.1,5.4 C 266,5.5 266,5.6 266,5.7 v 8.4 c 0,0.1 0,0.2 0.1,0.3 0.1,0.1 0.2,0.1 0.3,0.1 h 8.3 c 0.1,0 0.3,0 0.3,0.1 0.1,0.1 0.1,0.2 0.1,0.3 v 3.4 c 0,0.1 0,0.3 -0.1,0.3 -0.1,0.1 -0.2,0.1 -0.3,0.1 h -5.4 -4.4 -0.5 c -0.4,0 -0.8,-0.1 -1.2,-0.2 -0.4,-0.2 -0.7,-0.4 -1,-0.6 -0.3,-0.3 -0.5,-0.6 -0.6,-1 -0.2,-0.4 -0.2,-0.8 -0.2,-1.2 v -0.5 -1.9 -6 -1.7 -2 c 0,-0.4 0.1,-0.8 0.2,-1.2 0.2,-0.4 0.4,-0.7 0.6,-1 0.3,-0.3 0.6,-0.5 1,-0.6 0.4,-0.2 0.8,-0.2 1.2,-0.2 h 0.5 9.8 c 0.1,0 0.3,0 0.3,0.1 0.1,0.1 0.1,0.2 0.1,0.3 v 3.4 c 0,0.1 0,0.3 -0.1,0.3 -0.1,0.1 -0.2,0.1 -0.3,0.1 h -8.3 c -0.1,0.5 -0.2,0.6 -0.3,0.6 z"
       id="path28"
       inkscape:connector-curvature="0"
       style="fill:#ffffff" />
    <path
       d="m 289.6,8.5 c -0.1,0.1 -0.1,0.1 0,0.2 l 6,9.9 c 0.1,0.1 0.1,0.2 0,0.3 -0.1,0.1 -0.1,0.1 -0.3,0.1 H 291 c -0.1,0 -0.3,0 -0.4,-0.1 -0.1,-0.1 -0.2,-0.2 -0.3,-0.3 l -3.9,-7 c -0.1,-0.1 -0.1,-0.1 -0.1,0 l -2.1,2.3 c -0.1,0.1 -0.2,0.2 -0.2,0.4 -0.1,0.2 -0.1,0.3 -0.1,0.5 v 3.8 c 0,0.3 -0.2,0.5 -0.5,0.5 h -3.5 c -0.3,0 -0.5,-0.2 -0.5,-0.5 V 1.5 c 0,-0.3 0.2,-0.5 0.5,-0.5 h 3.6 c 0.3,0 0.5,0.2 0.5,0.5 v 7.7 l 6.7,-7.8 c 0.1,-0.1 0.2,-0.2 0.4,-0.3 C 291.3,1 291.4,1 291.5,1 h 4.3 c 0.1,0 0.2,0 0.2,0.1 0,0.1 0,0.2 -0.1,0.3 z"
       id="path30"
       inkscape:connector-curvature="0"
       style="fill:#ffffff" />
    <path
       d="m 303.5,18.5 c 0,0.3 -0.2,0.5 -0.5,0.5 h -3.6 c -0.3,0 -0.5,-0.2 -0.5,-0.5 V 1.4 c 0,-0.3 0.2,-0.5 0.5,-0.5 h 3.6 c 0.3,0 0.5,0.2 0.5,0.5 z"
       id="path32"
       inkscape:connector-curvature="0"
       style="fill:#ffffff" />
    <path
       d="m 320.9,1.2 c 0.4,0.2 0.7,0.4 1,0.6 0.3,0.3 0.5,0.6 0.6,1 0.2,0.4 0.2,0.8 0.2,1.2 v 14.6 c 0,0.1 0,0.3 -0.1,0.3 -0.1,0.1 -0.2,0.1 -0.3,0.1 h -3.6 c -0.1,0 -0.2,0 -0.3,-0.1 -0.1,-0.1 -0.1,-0.2 -0.1,-0.3 V 5.9 c 0,-0.1 0,-0.2 -0.1,-0.3 -0.1,-0.1 -0.2,-0.1 -0.3,-0.1 h -5.1 c -0.1,0 -0.3,0 -0.3,0.1 0,0.1 -0.1,0.2 -0.1,0.3 v 12.7 c 0,0.3 -0.2,0.5 -0.5,0.5 h -3.6 c -0.3,0 -0.5,-0.2 -0.5,-0.5 V 1.5 C 307.8,1.2 308,1 308.3,1 H 320 c 0.2,-0.1 0.6,0 0.9,0.2 z"
       id="path34"
       inkscape:connector-curvature="0"
       style="fill:#ffffff" />
    <path
       d="m 341.8,9.3 c 0.1,0.1 0.1,0.2 0.1,0.3 V 16 c 0,0.4 -0.1,0.8 -0.2,1.2 -0.2,0.4 -0.4,0.7 -0.6,1 -0.3,0.3 -0.6,0.5 -1,0.6 -0.4,0.2 -0.8,0.2 -1.2,0.2 h -9.1 c -0.4,0 -0.8,-0.1 -1.2,-0.2 -0.4,-0.2 -0.7,-0.4 -1,-0.6 -0.3,-0.3 -0.5,-0.6 -0.6,-1 -0.2,-0.4 -0.2,-0.8 -0.2,-1.2 V 4 c 0,-0.4 0.1,-0.8 0.2,-1.2 0.1,-0.4 0.4,-0.7 0.6,-1 0.3,-0.3 0.6,-0.5 1,-0.6 C 329,1 329.4,1 329.8,1 h 10.7 c 0.1,0 0.3,0 0.3,0.1 0.1,0.1 0.1,0.2 0.1,0.3 v 3.4 c 0,0.1 0,0.3 -0.1,0.3 -0.1,0.1 -0.2,0.1 -0.3,0.1 h -8.6 c -0.1,0 -0.3,0 -0.3,0.1 -0.1,0.1 -0.1,0.2 -0.1,0.3 V 14 c 0,0.1 0,0.2 0.1,0.3 0.1,0.1 0.2,0.1 0.3,0.1 h 5.1 c 0.1,0 0.2,0 0.3,-0.1 0.1,-0.1 0.1,-0.2 0.1,-0.3 V 9.5 c 0,-0.1 0,-0.3 0.1,-0.3 0.1,-0.1 0.2,-0.1 0.3,-0.1 h 3.6 c 0.2,0 0.3,0.1 0.4,0.2 z"
       id="path36"
       inkscape:connector-curvature="0"
       style="fill:#ffffff" />
  </g>
  <g
     style="fill:none;fill-rule:evenodd;stroke:none;stroke-width:1"
     class="svg_mlh_letter svg_mlh_large_m"
     id="g44">
    <path
       d="m 109.8,2.5 c 2.3,1 4.3,2.4 6,4.1 1.7,1.7 3,3.7 4.1,6 1,2.3 1.5,4.8 1.5,7.4 v 94.8 c 0,0.9 -0.3,1.6 -0.9,2.2 -0.6,0.6 -1.3,0.9 -2.2,0.9 H 95.6 c -0.9,0 -1.6,-0.3 -2.1,-0.9 -0.5,-0.6 -0.8,-1.3 -0.8,-2.2 V 28.6 H 74.4 v 86.2 c 0,0.9 -0.3,1.6 -0.8,2.2 -0.5,0.6 -1.3,0.9 -2.1,0.9 H 50.9 c -0.9,0 -1.6,-0.3 -2.2,-0.9 -0.6,-0.6 -0.9,-1.3 -0.9,-2.2 V 28.6 H 29.5 v 86.2 c 0,2.1 -1,3.1 -3.1,3.1 H 3.9 c -2.1,0 -3.1,-1 -3.1,-3.1 V 4.1 C 0.8,2 1.8,1 3.9,1 h 98.4 c 2.7,0 5.1,0.5 7.5,1.5 z"
       id="path40"
       inkscape:connector-curvature="0"
       style="fill:#c53c02" />
    <path
       d="m 109.8,2.5 c 2.3,1 4.3,2.4 6,4.1 1.7,1.7 3,3.7 4.1,6 1,2.3 1.5,4.8 1.5,7.4 v 8.4 L 92.7,28.6 H 74.4 47.9 29.6 L 0.9,28.4 V 4 C 0.9,1.9 1.9,0.9 4,0.9 h 98.4 c 2.6,0.1 5,0.6 7.4,1.6 z"
       id="path42"
       inkscape:connector-curvature="0"
       style="fill:#751b00" />
  </g>
  <g
     style="fill:none;fill-rule:evenodd;stroke:none;stroke-width:1"
     class="svg_mlh_letter svg_mlh_large_l"
     transform="translate(139,1)"
     id="g50">
    <path
       d="m 81.3,88.5 c 0.9,0 1.7,0.3 2.2,0.9 0.6,0.6 0.9,1.4 0.9,2.3 v 22.1 c 0,0.9 -0.3,1.6 -0.9,2.3 -0.6,0.6 -1.3,0.9 -2.2,0.9 H 3.6 c -2.2,0 -3.3,-1.1 -3.3,-3.2 V 3.2 C 0.3,1.1 1.4,0 3.6,0 h 23.8 c 2.2,0 3.3,1.1 3.3,3.2 v 82.4 c 0,0.9 0.3,1.6 1,2.2 0.6,0.6 1.4,0.8 2.3,0.8 h 47.3 z"
       id="path46"
       inkscape:connector-curvature="0"
       style="fill:#265a8f" />
    <path
       d="M 30.5,116.9 H 3.6 c -2.2,0 -3.3,-1.1 -3.3,-3.2 V 3.2 C 0.3,1.1 1.4,0 3.6,0 h 23.8 c 2.2,0 3.3,1.1 3.3,3.2 v 82.4 c 0,0.8 -0.2,31.3 -0.2,31.3 z"
       id="path48"
       inkscape:connector-curvature="0"
       style="fill:#162f51" />
  </g>
  <g
     style="fill:none;fill-rule:evenodd;stroke:none;stroke-width:1"
     class="svg_mlh_letter svg_mlh_large_h"
     transform="translate(241,1)"
     id="g58">
    <path
       d="m 98.7,0 c 0.9,0 1.7,0.3 2.3,0.9 0.6,0.6 1,1.4 1,2.3 v 110.9 c 0,0.9 -0.3,1.6 -1,2.3 -0.6,0.6 -1.4,0.9 -2.3,0.9 H 74.5 c -0.9,0 -1.7,-0.3 -2.3,-0.9 -0.6,-0.6 -1,-1.4 -1,-2.3 V 75.4 c 0,-0.9 -0.3,-1.6 -0.9,-2.2 C 69.7,72.6 69,72.4 68,72.4 H 34.1 c -0.9,0 -1.7,0.3 -2.3,0.8 -0.6,0.6 -1,1.3 -1,2.2 v 38.7 c 0,2.1 -1.1,3.2 -3.3,3.2 h -24 c -2.2,0 -3.3,-1.1 -3.3,-3.2 V 3.2 C 0.2,1.1 1.3,0 3.5,0 h 24 c 2.2,0 3.3,1.1 3.3,3.2 v 37.5 c 0,2.1 1.1,3.2 3.3,3.2 H 68 c 0.9,0 1.7,-0.3 2.3,-0.9 0.6,-0.6 0.9,-1.4 0.9,-2.3 V 3.2 c 0,-0.9 0.3,-1.6 1,-2.3 C 72.8,0.3 73.6,0 74.5,0 Z"
       id="path52"
       inkscape:connector-curvature="0"
       style="fill:#fdee00" />
    <path
       d="m 30.9,75.4 v 38.7 c 0,2.1 -1.1,3.2 -3.3,3.2 h -24 c -2.2,0 -3.3,-1.1 -3.3,-3.2 V 3.2 C 0.3,1.1 1.4,0 3.6,0 h 24 c 2.2,0 3.3,1.1 3.3,3.2 v 37.5 z"
       id="path54"
       inkscape:connector-curvature="0"
       style="fill:#ecc700" />
    <path
       d="m 98.7,0 c 0.9,0 1.7,0.3 2.3,0.9 0.6,0.6 1,1.4 1,2.3 v 110.9 c 0,0.9 -0.3,1.6 -1,2.3 -0.6,0.6 -1.4,0.9 -2.3,0.9 H 74.5 c -0.9,0 -1.7,-0.3 -2.3,-0.9 -0.6,-0.6 -1,-1.4 -1,-2.3 V 75.4 40.7 3.2 c 0,-0.9 0.3,-1.6 1,-2.3 0.6,-0.6 1.4,-0.9 2.3,-0.9 0,0 24.2,0 24.2,0 z"
       id="path56"
       inkscape:connector-curvature="0"
       style="fill:#ecc700" />
  </g>
</svg>
