<?xml version="1.0"?>
<svg xmlns="http://www.w3.org/2000/svg" height="512px" viewBox="0 0 469.33333 469.33333" width="512px" class=""><g><path d="m234.667969 0c-129.386719 0-234.667969 105.28125-234.667969 234.667969s105.28125 234.664062 234.667969 234.664062 234.664062-105.277343 234.664062-234.664062-105.277343-234.667969-234.664062-234.667969zm69.332031 181.332031c8.832031 0 16 7.167969 16 16s-7.167969 16-16 16h-25.003906c-8.679688 26.625-32.808594 46.359375-61.929688 47.914063l74.625 50.882812c7.296875 4.96875 9.171875 14.933594 4.203125 22.226563-3.09375 4.523437-8.128906 6.976562-13.25 6.976562-3.113281 0-6.230469-.894531-9-2.773437l-117.335937-80c-5.78125-3.964844-8.339844-11.21875-6.269532-17.941406 2.066407-6.71875 8.277344-11.285157 15.292969-11.285157h48c12.652344 0 23.808594-6.355469 30.550781-16h-78.550781c-8.832031 0-16-7.167969-16-16s7.167969-16 16-16h83.585938c-4.609375-15.359375-18.730469-26.664062-35.585938-26.664062h-48c-8.832031 0-16-7.167969-16-16s7.167969-16 16-16h138.667969c8.832031 0 16 7.167969 16 16s-7.167969 16-16 16h-32.425781c5.097656 7.933593 8.488281 16.980469 10.003906 26.664062zm0 0" data-original="#000000" class="active-path" data-old_color="#000000" fill="#FFFFFF"/></g> </svg>
